<svg xmlns="http://www.w3.org/2000/svg" viewBox="0 0 407.88 183.44"><defs><style>.cls-1{fill:#222;}.cls-2{fill:#588eeb;}.cls-3{fill:#fff;}</style></defs><g id="Layer_2" data-name="Layer 2"><g id="Layer_1-2" data-name="Layer 1"><path class="cls-1" d="M233.84,60V52.67h4.77V60h7.33v4.77h-7.33V72.1h-4.77V64.77h-7.33V60Z" transform="translate(0)"/><path class="cls-1" d="M248.9,50.89V39.44a8,8,0,0,1,1.55-4.79,13.82,13.82,0,0,1,3.63-3.53h4.07v3.8h-.88a4.44,4.44,0,0,0-3.22,1.32,4.31,4.31,0,0,0-1.35,3.2V50.89a3.66,3.66,0,0,0,1.13,2.7,3.7,3.7,0,0,0,2.67,1.1h1.27v3.79H256.5a7.7,7.7,0,0,1-3-.57,7.62,7.62,0,0,1-4.05-4A7.71,7.71,0,0,1,248.9,50.89Z" transform="translate(0)"/><path class="cls-1" d="M270.1,58.26h-3.53a7.59,7.59,0,0,1-5.56-2,7.34,7.34,0,0,1-2-5.47V48.3a7.65,7.65,0,0,1,2.59-6A7.14,7.14,0,0,1,259,36.68V34.92H257.6v-3.8h21.75v3.8H277.2V58.43h-3.8V48.8A4.51,4.51,0,0,0,272,45.49a4.56,4.56,0,0,0-3.35-1.37H267a4.17,4.17,0,0,0-3.09,1.15,4.09,4.09,0,0,0-1.15,3v2.48a3.73,3.73,0,0,0,.93,2.81,4.1,4.1,0,0,0,2.86.88h3.53Zm-3.64-17.89h2.21a8.2,8.2,0,0,1,4.73,1.43V34.92H262.78v1.76a3.65,3.65,0,0,0,3.68,3.69Z" transform="translate(0)"/><path class="cls-1" d="M298.94,24.79l-.05-.05a19.9,19.9,0,0,0-3.25-2.42,8.18,8.18,0,0,0-4.35-1.1,6.43,6.43,0,0,0-3.66.88,5.94,5.94,0,0,0-1.9,1.95,5.48,5.48,0,0,0-.71,2c-.08.62-.11,1-.11,1.1v4h2.25v3.8h-2.25V58.48h-3.8V34.92H278.8v-3.8h2.31v-3.9a12.32,12.32,0,0,1,.41-2.78A9.6,9.6,0,0,1,283,21.19a9.07,9.07,0,0,1,3-2.67,9.87,9.87,0,0,1,5-1.1,13,13,0,0,1,3.38.41,14.11,14.11,0,0,1,2.87,1.07,14.59,14.59,0,0,1,2.28,1.43c.66.52,1.25,1,1.76,1.49l.11.11Z" transform="translate(0)"/><path class="cls-1" d="M286.72,34.92v-3.8h26.87v3.8H300.21V44.5l.25,0,.25,0a8.71,8.71,0,0,0,1.76-.2,5.21,5.21,0,0,0,1.84-.77A7.65,7.65,0,0,0,306.07,42a9.5,9.5,0,0,0,1.52-2.58v-1h3.8v10.4a9.84,9.84,0,0,1-.8,3.94A10.62,10.62,0,0,1,308.41,56a10.26,10.26,0,0,1-3.22,2.23,9.66,9.66,0,0,1-4,.83h-2.86a10,10,0,0,1-4-.8,9.78,9.78,0,0,1-3.25-2.2A10.51,10.51,0,0,1,289,52.81a10,10,0,0,1-.79-4V40.37H292v8.48a6.14,6.14,0,0,0,.53,2.51,6.81,6.81,0,0,0,1.37,2.06,6.11,6.11,0,0,0,2,1.38,6.24,6.24,0,0,0,2.48.49h2.86a6.24,6.24,0,0,0,2.48-.49,6.11,6.11,0,0,0,2-1.38,6.81,6.81,0,0,0,1.37-2.06,6.14,6.14,0,0,0,.53-2.51V45.93A11.06,11.06,0,0,1,301,48.3c-.63,0-1.2,0-1.71,0a6.76,6.76,0,0,1-1.49-.28l-1.37-.39V34.92Z" transform="translate(0)"/><path class="cls-1" d="M268.83,94.44h-3q-7.71-.16-11.78-4.57a12,12,0,0,1-2-2.92,16.89,16.89,0,0,1-1.13-3,15,15,0,0,1-.49-2.62,19.46,19.46,0,0,1-.11-2c0-.29,0-.53,0-.71s0-.3,0-.34l.11-1.1,14.53-6v-.33H248.9v-3.8H271v3.8h-2.15Zm-11.89-7.1q2.7,3.07,8.09,3.47V75.34l-10.9,4.51a13.22,13.22,0,0,0,.11,1.54,10.24,10.24,0,0,0,.44,1.87,13.6,13.6,0,0,0,.89,2A11.21,11.21,0,0,0,256.94,87.34Z" transform="translate(0)"/><path class="cls-1" d="M269.71,67.13h1.1a3.09,3.09,0,0,1,2.59,1.05V64.27h3.8v2.86h3.19v3.8H277.2V94.49h-3.8V76.22a6.94,6.94,0,0,0-.91-4,3.2,3.2,0,0,0-2.78-1.27Z" transform="translate(0)"/><path class="cls-1" d="M280.39,87V75.5a8,8,0,0,1,1.38-4.57h-3.2v-3.8h11v3.8h-.88a4.36,4.36,0,0,0-3.19,1.32,4.43,4.43,0,0,0-1.32,3.25V87a3.7,3.7,0,0,0,1.1,2.67,3.59,3.59,0,0,0,2.7,1.13h1.26v3.8H288a7.54,7.54,0,0,1-3-.58,7.62,7.62,0,0,1-2.42-1.62,7.57,7.57,0,0,1-2.2-5.4Z" transform="translate(0)"/><path class="cls-1" d="M288.81,70.93v-3.8h22.52v3.8h-2.15V94.44h-2.8a22,22,0,0,1-7.55-1.18,13.26,13.26,0,0,1-5.23-3.39,11.14,11.14,0,0,1-1.51-2.26,12.7,12.7,0,0,1-1.29-4.13,10.91,10.91,0,0,1-.12-1.43,2.46,2.46,0,0,1,.06-.82l.11-1.16,5.89-2.31c.15,0,.29-.21.44-.52a3.27,3.27,0,0,0,.22-1.35c0-.7-.15-1.12-.44-1.27l-5.23-3.69Zm7.77,22.57-.77,3.69a7.78,7.78,0,0,1-2.12-.71,10.88,10.88,0,0,1-2.76-2,3,3,0,0,1-.46-.52l2.91-2.42a4.33,4.33,0,0,0,.88.85A5.37,5.37,0,0,0,296.58,93.5Zm8.8-2.64V70.93h-7l.82.55a4.28,4.28,0,0,1,1.55,1.93A7,7,0,0,1,301.2,76a6.76,6.76,0,0,1-.88,3.38,4.49,4.49,0,0,1-2.2,1.9l-3.64,1.43a7.19,7.19,0,0,0,.69,2.65,7.84,7.84,0,0,0,1.93,2.53,11.29,11.29,0,0,0,3.33,2A15.6,15.6,0,0,0,305.38,90.86Z" transform="translate(0)"/><path class="cls-1" d="M310.06,67.13h1.1a3.09,3.09,0,0,1,2.59,1.05V64.27h3.8v2.86h3.19v3.8h-3.19V94.49h-3.8V76.22a6.94,6.94,0,0,0-.91-4,3.2,3.2,0,0,0-2.78-1.27Z" transform="translate(0)"/><path class="cls-1" d="M319.25,70.93v-3.8h29.51v3.8h-2.14V94.44h-3.8V80.07a2.54,2.54,0,0,0-2.54-2.53h-.38a1.64,1.64,0,0,0-1.21.49,1.67,1.67,0,0,0-.5,1.22V84h-3.8V80.24a2.92,2.92,0,0,0-1.46-2,4.86,4.86,0,0,0-2.5-.69h-1.16a4.52,4.52,0,0,0-1.84.38,5.43,5.43,0,0,0-1.51,1,4.4,4.4,0,0,0-1,1.49,4.68,4.68,0,0,0-.36,1.84v2.48a4.67,4.67,0,0,0,1.38,3.39,4.51,4.51,0,0,0,3.35,1.4h2.59v3.74h-2.59a8.31,8.31,0,0,1-3.3-.66,8.49,8.49,0,0,1-2.7-1.81,8.91,8.91,0,0,1-1.84-2.7,8.15,8.15,0,0,1-.69-3.36V82.27a8.21,8.21,0,0,1,.69-3.33,8.63,8.63,0,0,1,1.87-2.72A9,9,0,0,1,326,74.4a8.18,8.18,0,0,1,3.25-.66h1.16a8,8,0,0,1,5.34,1.87,5.27,5.27,0,0,1,4.13-1.87h.38a5.58,5.58,0,0,1,2.54.55V70.93Z" transform="translate(0)"/><path class="cls-1" d="M368.36,60.8l-.06,0a19.81,19.81,0,0,0-3.24-2.42,8.18,8.18,0,0,0-4.35-1.1,6.43,6.43,0,0,0-3.66.88,5.75,5.75,0,0,0-1.9,2,5.51,5.51,0,0,0-.72,2c-.07.62-.11,1-.11,1.1v4h2.26v3.8h-2.26V94.49h-3.8V70.93h-2.31v-3.8h2.31v-3.9a11.87,11.87,0,0,1,.42-2.78,9.57,9.57,0,0,1,1.51-3.25,9,9,0,0,1,3-2.67,9.81,9.81,0,0,1,4.95-1.1,13.12,13.12,0,0,1,3.39.41,14,14,0,0,1,2.86,1.07A14.59,14.59,0,0,1,369,56.34c.67.52,1.25,1,1.77,1.49l.11.11Z" transform="translate(0)"/><path class="cls-1" d="M356.19,70.93v-3.8h31.93v3.8H374.25a10.22,10.22,0,0,0,1.49,1.13,9.62,9.62,0,0,0,2.14,1,22.78,22.78,0,0,0,3.28.78,39.93,39.93,0,0,0,4.87.44V94.88h-3.8V77.81a19.25,19.25,0,0,1-7.26-2,15.74,15.74,0,0,1-4.13-3l-1.6,1.16a4.81,4.81,0,0,0-1.71,3.69v1.76a3,3,0,0,0,.91,2.17,2.89,2.89,0,0,0,2.12.91h1.27a8.5,8.5,0,0,0,1.07-.08,4.27,4.27,0,0,0,1.38-.41,3.44,3.44,0,0,0,1.21-1,2.75,2.75,0,0,0,.52-1.76v-.94h3.8v6.11a11.55,11.55,0,0,1-.69,4,9.87,9.87,0,0,1-1.93,3.25,8.68,8.68,0,0,1-6.63,2.91h-2.81a10,10,0,0,1-4-.79,10.31,10.31,0,0,1-3.25-2.18,10.12,10.12,0,0,1-2.17-3.25,10,10,0,0,1-.8-4V76h3.8v8.53a6.37,6.37,0,0,0,.49,2.5,6,6,0,0,0,1.38,2,7.2,7.2,0,0,0,2,1.38,5.88,5.88,0,0,0,2.47.52h2.81a4.7,4.7,0,0,0,3.91-1.65A6.86,6.86,0,0,0,376,85.47a9,9,0,0,1-4.13.88h-1.27a6.58,6.58,0,0,1-2.61-.53,6.82,6.82,0,0,1-2.18-1.43,6.81,6.81,0,0,1-2-4.87V77.76a8.51,8.51,0,0,1,3.13-6.61l.33-.22Z" transform="translate(0)"/><path class="cls-2" d="M322.33.1a2.75,2.75,0,0,0-1.75,1.3c-.25.48-.39.59-.76.69a4.87,4.87,0,0,0-3.42,3.68c-.08.4-.12,2.66-.12,7v6.41h-1.91v1.44a12.66,12.66,0,0,0,1.47,6.32A14,14,0,0,0,324,33.76l.9.28.05,1.88a6.73,6.73,0,0,0,.3,2.52,3,3,0,0,0,2.15,1.83l.29,0,.12,2a17.44,17.44,0,0,0,.42,3A12.56,12.56,0,0,0,337,54.44a13.54,13.54,0,0,0,1.72.3c6.5.66,12.31-4.46,13-11.47.07-.71.11-5,.11-11,0-9.46,0-9.91.23-10.74a6.35,6.35,0,0,1,6-5,5.62,5.62,0,0,1,4.06,1.71,5.77,5.77,0,0,1,1.26,1.64,7.51,7.51,0,0,1,.89,3.69l.07,1.47-.62.14a6.81,6.81,0,0,0-4,2.77,6.69,6.69,0,0,0,10.51,8.24,6.61,6.61,0,0,0-.28-9.2,6.35,6.35,0,0,0-3.11-1.78l-.57-.14-.07-1.6a9.68,9.68,0,0,0-.71-3.7,8.48,8.48,0,0,0-5.11-4.81,9,9,0,0,0-4-.18,8.61,8.61,0,0,0-6.16,6l-.27.79-.07,11c-.07,11.77-.05,11.41-.62,13.17a12.86,12.86,0,0,1-1.69,3.15C343.05,54.89,334.38,54,331,47.11a9.9,9.9,0,0,1-1.14-4.89l-.06-1.87.32-.07a3,3,0,0,0,2.2-1.84,6.73,6.73,0,0,0,.3-2.52l.05-1.88.9-.28a14.07,14.07,0,0,0,8.18-6.82,12.76,12.76,0,0,0,1.47-6.32V19.18h-1.91V13c0-3.53-.06-6.5-.12-6.95a4.53,4.53,0,0,0-1.26-2.6,4.39,4.39,0,0,0-2.07-1.33c-.48-.15-.59-.25-.88-.76a2.86,2.86,0,0,0-4.93.18,3.47,3.47,0,0,0,0,2.61,3.26,3.26,0,0,0,1.46,1.34,3.51,3.51,0,0,0,2.24,0,3.36,3.36,0,0,0,1.35-1.28c.15-.46,1.14.11,1.78,1,.29.41.33.59.41,1.62.05.64.09,3.68.09,6.75v5.6h-1.87l-.07,1.54a8,8,0,0,1-.82,3.7c-1.74,3.55-6.16,5.2-10.23,3.84a7.81,7.81,0,0,1-4.6-4.16,8.44,8.44,0,0,1-.63-3.56V19.18h-2.94l0-6.61,0-6.61.34-.62A2.87,2.87,0,0,1,320.21,4c.1,0,.29.2.43.46a2.93,2.93,0,0,0,2.95,1.22A2.86,2.86,0,1,0,322.33.1Zm1.35,2.13A.92.92,0,0,1,323,3.77a1,1,0,0,1-.56-.16,1,1,0,0,1,.18-1.6A.86.86,0,0,1,323.68,2.23ZM334.89,2a1,1,0,0,1,.55,1.06.93.93,0,0,1-1.55.42c-.56-.56-.26-1.39.59-1.62A1.2,1.2,0,0,1,334.89,2ZM319.2,21.6a9.66,9.66,0,0,0,9.62,9,10.16,10.16,0,0,0,5.9-1.45,9.6,9.6,0,0,0,4.57-7.27l.08-.81h1.92l-.08.86a11.79,11.79,0,0,1-7.92,9.88,14,14,0,0,1-10.39-.56,13.57,13.57,0,0,1-4.49-3.76A11.65,11.65,0,0,1,316.32,22l-.07-.86h2.95Zm47.51,5.51a5.26,5.26,0,0,1,2.15,1.42,4.8,4.8,0,0,1-1.6,7.46,3.74,3.74,0,0,1-1.77.38,4.35,4.35,0,0,1-3.46-1.2,4.77,4.77,0,0,1,4.68-8.06Zm-36,8.59c0,1.43-.15,2.16-.47,2.46a4.58,4.58,0,0,1-2.88,0c-.33-.3-.47-1-.47-2.46V34.43h3.82Z" transform="translate(0)"/><path class="cls-2" d="M364.63,28.87a2.54,2.54,0,0,0-1.51.93A2.79,2.79,0,0,0,365,34.46a2.64,2.64,0,0,0,2.72-1.41,2.68,2.68,0,0,0,.27-2.18A2.9,2.9,0,0,0,364.63,28.87Zm.92,1.91a.92.92,0,0,1-.3,1.79.94.94,0,0,1-.25-1.83l.18-.07A1.86,1.86,0,0,1,365.55,30.78Z" transform="translate(0)"/><path class="cls-2" d="M70.67,41.74V57.29h-9V51.43H54.32V65.65H64.45l6.22,3.11V97.19H24.2L18.6,67.51l5-25.77H38v9.69H31.75l-3.2,16.08,3.82,20H60.63V75.33H50.86l-6.22-3.55v-30Z" transform="translate(0)"/><path class="cls-2" d="M79,41.74H89.6V97.19H79Z" transform="translate(0)"/><path class="cls-2" d="M160.33,35H146.74v.18H137V28.41h-9.24l-19,6.76v62H98V26.81l26.57-8.08h22.22V35l16.79-15,6.31,4.36Z" transform="translate(0)"/><path class="cls-2" d="M139.8,83.33l-2.75,13.86H117V87.51H127.9l3.55-17.72L117,66.58V41.74h41.94V97.19H148v-8.8Zm8-6V51.43H128.16V58.8l15.91,3.38-2.22,11.29Z" transform="translate(0)"/><path class="cls-2" d="M178,97.19H167.26V23.53l31-9.42h22.22V30.55h-9.78V23.79h-9.24L178,32.15Z" transform="translate(0)"/><path class="cls-2" d="M222.62,51.43h-26V88.22h15.46V78.53l-1.51-3.73h-7.91V64.14h17.42l2.49,10.57V97.19H186.28V41.74h26.56v-5H197.12L191.7,24.86l-2.76-6.49h10.84l3.56,8.09h19.28Z" transform="translate(0)"/><rect class="cls-2" x="1.03" y="107.58" width="404.66" height="37.43" rx="2.22"/><path class="cls-3" d="M6,132.37v-9.71a6.81,6.81,0,0,1,1.31-4.06,11.81,11.81,0,0,1,3.08-3h3.45v3.22h-.74A3.78,3.78,0,0,0,10.41,120a3.64,3.64,0,0,0-1.15,2.71v9.71a3.05,3.05,0,0,0,1,2.28,3.15,3.15,0,0,0,2.26.94h1.08v3.21H12.48a6.57,6.57,0,0,1-2.52-.48,6.39,6.39,0,0,1-2.05-1.38,6.5,6.5,0,0,1-1.38-2.05A6.58,6.58,0,0,1,6,132.37Z" transform="translate(0)"/><path class="cls-3" d="M23.73,125.79a5.22,5.22,0,0,1-1.87-1.59,6,6,0,0,1-4.57,2.1H14.68v-3.22h2.61a2.85,2.85,0,0,0,2.84-2.89v-1.36H13.28v-3.22H30.45c1.61,0,2.42,1.08,2.42,3.22v2.1a5.3,5.3,0,0,1-.28,1.66,5.58,5.58,0,0,1-.83,1.63,5.46,5.46,0,0,1-1.36,1.31,4.58,4.58,0,0,1-1.82.72H25A3.67,3.67,0,0,1,23.73,125.79Zm5.93-4.86v-2.1H24v2.29a1.85,1.85,0,0,0,.58,1.4,1.94,1.94,0,0,0,1.38.56h1.54a2.17,2.17,0,0,0,2.15-2.15Z" transform="translate(0)"/><path class="cls-3" d="M44,112.86H47.2v2.75H49v3.22H47.2v19.93H44V129l-11.2,4.48-1.21-3L35.35,129v-2.75c0-.38-.17-.56-.52-.56H30v-5.93a4.07,4.07,0,0,1,.32-1.59,4.35,4.35,0,0,1,.89-1.3,4.09,4.09,0,0,1,1.33-.89,4,4,0,0,1,1.61-.33h5.37a7.37,7.37,0,0,1,4.43,1.5Zm-5.41,14.79L44,125.51V123l-1.31-2.71a3.66,3.66,0,0,0-1.33-1,4,4,0,0,0-1.79-.42H34.18a.92.92,0,0,0-.65.26.81.81,0,0,0-.28.63v2.75h2a3.28,3.28,0,0,1,3.27,3.27Z" transform="translate(0)"/><path class="cls-3" d="M71.7,115.61v3.22H69.83v19.93H66.61V122.85a4.15,4.15,0,0,0-1-2.85,3.16,3.16,0,0,0-2.47-1.17h-.89A3.12,3.12,0,0,0,59.8,120a4.15,4.15,0,0,0-1,2.85v.88a4.15,4.15,0,0,0,1,2.85,3.12,3.12,0,0,0,2.42,1.17h2V131h-2a6.2,6.2,0,0,1-5.17-2.66A6.31,6.31,0,0,1,51.86,131h-2v-3.22h2a3.19,3.19,0,0,0,2.48-1.17,4.19,4.19,0,0,0,1-2.85v-.88a4.19,4.19,0,0,0-1-2.85,3.19,3.19,0,0,0-2.48-1.17H48.18v-3.22h3.68a6.31,6.31,0,0,1,5.19,2.66,6.2,6.2,0,0,1,5.17-2.66h.89a6.22,6.22,0,0,1,3.5,1.08v-3.83h3.22v2.75Z" transform="translate(0)"/><path class="cls-3" d="M70.58,115.61h.93a2.61,2.61,0,0,1,2.19.89v-3.31h3.23v2.42h2.7v3.22h-2.7v20H73.7V123.31a5.94,5.94,0,0,0-.76-3.4,2.72,2.72,0,0,0-2.36-1.08Z" transform="translate(0)"/><path class="cls-3" d="M78.37,118.83v-3.22h25v3.22h-1.82v19.93H98.34V126.58a2.15,2.15,0,0,0-2.15-2.15h-.32a1.4,1.4,0,0,0-1,.42,1.41,1.41,0,0,0-.42,1v4.06H91.2v-3.22A2.48,2.48,0,0,0,90,125a4.14,4.14,0,0,0-2.12-.59h-1a3.7,3.7,0,0,0-1.56.33,4.71,4.71,0,0,0-1.28.86,3.65,3.65,0,0,0-.87,1.26,4.1,4.1,0,0,0-.3,1.57v2.1A4,4,0,0,0,84,133.42a3.81,3.81,0,0,0,2.84,1.18h2.19v3.18H86.86a7.11,7.11,0,0,1-5.08-2.1,7.47,7.47,0,0,1-1.57-2.29,6.87,6.87,0,0,1-.58-2.84v-2.1a7,7,0,0,1,.58-2.83,7.44,7.44,0,0,1,1.59-2.31,7.72,7.72,0,0,1,2.31-1.54,7,7,0,0,1,2.75-.56h1a6.77,6.77,0,0,1,4.53,1.59,4.47,4.47,0,0,1,3.5-1.59h.32a4.76,4.76,0,0,1,2.15.47v-2.85Z" transform="translate(0)"/><path class="cls-3" d="M131.71,118.83v21.33h-3.18v-1.4h0v-1.21H126a1,1,0,0,0-.66.25.9.9,0,0,0-.28.68v2.33h-6.34a4.85,4.85,0,0,1-2-.4,5.07,5.07,0,0,1-1.58-1.07,5.28,5.28,0,0,1-1.08-1.58,5,5,0,0,1-.39-2v-1.68h3.17v1.68a1.78,1.78,0,0,0,.56,1.33,1.82,1.82,0,0,0,1.31.54H122a4,4,0,0,1,1.4-2.33,3.94,3.94,0,0,1,2.62-.94h2.52V129l-11.2,4.48-1.17-3L119.9,129v-2.75a.54.54,0,0,0-.16-.4.49.49,0,0,0-.35-.16h-4.81v-5.93a3.9,3.9,0,0,1,.33-1.59,4.15,4.15,0,0,1,.88-1.3,4.22,4.22,0,0,1,1.31-.89,3.9,3.9,0,0,1,1.59-.33h5.41a7.3,7.3,0,0,1,4.39,1.5v-4.25h3.22v2.75h1.86v3.22Zm-8.59,8.82,5.37-2.14V123l-1.31-2.71a3.27,3.27,0,0,0-1.31-1,4.1,4.1,0,0,0-1.77-.42h-5.41a.79.79,0,0,0-.89.89v2.75h2a3.28,3.28,0,0,1,3.31,3.27Z" transform="translate(0)"/><path class="cls-3" d="M132.45,115.61h.94a2.63,2.63,0,0,1,2.19.89v-3.31h3.22v2.42h2.71v3.22H138.8v20h-3.22V123.31a5.93,5.93,0,0,0-.77-3.4,2.71,2.71,0,0,0-2.36-1.08Z" transform="translate(0)"/><path class="cls-3" d="M156,115.61v3.22H140.29v-3.22h10.92v-1.72a1.68,1.68,0,0,0-1.73-1.73h-7.14v-3.22h7.14a4.85,4.85,0,0,1,5,5v1.72ZM147.2,132a3.59,3.59,0,0,0,2.63-1.09,3.67,3.67,0,0,0,1.1-2.69V125.6a2.87,2.87,0,0,0-2.85-2.85H145.7a1,1,0,0,0-1,1v4.44h-3.21v-4.44a4.22,4.22,0,0,1,4.19-4.2h2.38a5.83,5.83,0,0,1,2.36.49,6.42,6.42,0,0,1,1.91,1.31,6.24,6.24,0,0,1,1.31,1.91,5.67,5.67,0,0,1,.49,2.36v2.61a6.69,6.69,0,0,1-1.45,4.27,6.82,6.82,0,0,1-3.73,2.45l.7.42c.68.44,1.36.89,2,1.35s1.26.91,1.77,1.31.93.74,1.24,1l.51.44-2.14,2.38-.47-.37c-.28-.25-.65-.57-1.12-.94s-1-.78-1.59-1.21a18,18,0,0,0-1.86-1.21c-.66-.38-1.31-.73-2-1.05s-1.26-.61-1.82-.84l-1.47-.61-1-.4h-.32V132Z" transform="translate(0)"/><path class="cls-3" d="M156.9,132.41v-9.7a6.77,6.77,0,0,1,1.17-3.88h-2.71v-3.22h9.34v3.22H164a3.72,3.72,0,0,0-2.71,1.12,3.79,3.79,0,0,0-1.12,2.76v9.7a3.13,3.13,0,0,0,.94,2.27,3.08,3.08,0,0,0,2.28.95h1.08v3.22h-1.08a6.4,6.4,0,0,1-2.52-.49,6.2,6.2,0,0,1-2-1.37,6.43,6.43,0,0,1-1.38-2.06A6.51,6.51,0,0,1,156.9,132.41Z" transform="translate(0)"/><path class="cls-3" d="M164.18,118.83v-3.22h22.73v3.22Zm20.95,11.39a8.37,8.37,0,0,1-.67,3.34,9.09,9.09,0,0,1-1.84,2.75,8.53,8.53,0,0,1-6.12,2.54h-2.42a8.3,8.3,0,0,1-3.34-.67,8.82,8.82,0,0,1-2.75-1.87,8.65,8.65,0,0,1-1.87-2.75,8.38,8.38,0,0,1-.68-3.34V123h3.22v7.23a5.25,5.25,0,0,0,.42,2.1,5.44,5.44,0,0,0,2.9,2.89,5.25,5.25,0,0,0,2.1.42h2.42a5.25,5.25,0,0,0,2.1-.42,5.45,5.45,0,0,0,1.71-1.16,6.25,6.25,0,0,0,1.16-1.73,4.94,4.94,0,0,0,.44-2.1v-.79a7.79,7.79,0,0,1-2.7,1.16,12.63,12.63,0,0,1-2.8.33,11.25,11.25,0,0,1-2.66-.28l-1.26-.28v-6.77a3.88,3.88,0,0,1,.3-1.54,3.66,3.66,0,0,1,.84-1.21,4.39,4.39,0,0,1,1.24-.82,3.71,3.71,0,0,1,1.49-.3h1.92a2.94,2.94,0,0,1,3,3v1.63H178v-.84a.5.5,0,0,0-.56-.56h-1.12a.58.58,0,0,0-.65.65v4.06a1.57,1.57,0,0,0,.37,0h.42a7.75,7.75,0,0,0,3.13-.68,4.37,4.37,0,0,0,2.28-2.73v-.51h3.22Z" transform="translate(0)"/><path class="cls-3" d="M188.68,112.49v-3.22h8.07a5,5,0,0,1,2,.42,5.49,5.49,0,0,1,2.87,2.87,5,5,0,0,1,.42,2v1h1.82v3.22H191.11V135l5.74-1.92a2.93,2.93,0,0,0,2-2.8v-4.52a1.67,1.67,0,0,0-1.68-1.68h-3.08v-3.22h3.08a4.78,4.78,0,0,1,4.9,4.9v4.52a6.08,6.08,0,0,1-1.12,3.6,6,6,0,0,1-3.08,2.24l-6.72,2.24-3.26-1.87V118.83h-1.22v-3.22h12.18v-1a2.15,2.15,0,0,0-2.1-2.1Z" transform="translate(0)"/><path class="cls-3" d="M215.23,132.37v-9.71a6.81,6.81,0,0,1,1.31-4.06,11.66,11.66,0,0,1,3.08-3h3.45v3.22h-.75a3.8,3.8,0,0,0-2.73,1.12,3.66,3.66,0,0,0-1.14,2.71v9.71a3.05,3.05,0,0,0,1,2.28,3.13,3.13,0,0,0,2.26.94h1.07v3.21h-1.07a6.57,6.57,0,0,1-2.52-.48,6.37,6.37,0,0,1-3.92-5.95Z" transform="translate(0)"/><path class="cls-3" d="M241.08,118.83v21.33h-3.17v-1.4h0v-1.21h-2.52a.93.93,0,0,0-.65.25.87.87,0,0,0-.28.68v2.33h-6.35a4.83,4.83,0,0,1-2-.4,5,5,0,0,1-1.59-1.07,5.07,5.07,0,0,1-1.07-1.58,4.85,4.85,0,0,1-.4-2v-1.68h3.18v1.68a1.75,1.75,0,0,0,.56,1.33,1.8,1.8,0,0,0,1.3.54h3.27a4.09,4.09,0,0,1,4-3.27h2.52V129l-11.2,4.48-1.16-3,3.78-1.49v-2.75a.54.54,0,0,0-.17-.4.47.47,0,0,0-.35-.16H224v-5.93a4.07,4.07,0,0,1,.32-1.59,4.35,4.35,0,0,1,.89-1.3,4.11,4.11,0,0,1,1.31-.89,3.82,3.82,0,0,1,1.58-.33h5.42a7.3,7.3,0,0,1,4.38,1.5v-4.25h3.22v2.75H243v3.22Zm-8.58,8.82,5.36-2.14V123l-1.3-2.71a3.34,3.34,0,0,0-1.31-1,4.1,4.1,0,0,0-1.77-.42h-5.42a.78.78,0,0,0-.88.89v2.75h2a3.2,3.2,0,0,1,2.36,1,3.15,3.15,0,0,1,1,2.31Z" transform="translate(0)"/><path class="cls-3" d="M241.83,115.61h.93a2.61,2.61,0,0,1,2.19.89v-3.31h3.22v2.42h2.71v3.22h-2.71v20H245V123.31a5.85,5.85,0,0,0-.77-3.4,2.69,2.69,0,0,0-2.35-1.08Z" transform="translate(0)"/><path class="cls-3" d="M251,128.91h3.27v5a1.91,1.91,0,0,0,1.91,1.91h4v-.37a4.23,4.23,0,0,1,4.2-4.2h2.29v-5.46a9.36,9.36,0,0,0-.28-2.17,12.59,12.59,0,0,0-.75-2.22,6.59,6.59,0,0,0-1.09-1.72,1.83,1.83,0,0,0-1.38-.7h-3.08a3.31,3.31,0,0,0-2.08.7,3.4,3.4,0,0,0-1.23,1.82,1.62,1.62,0,0,1,.46,0h1.31a5,5,0,0,1,2,.42,5.34,5.34,0,0,1,1.66,1.12,5.52,5.52,0,0,1,1.12,1.66,5,5,0,0,1,.42,2V127a5.28,5.28,0,0,1-.45,2.15,5.46,5.46,0,0,1-1.19,1.77,5.57,5.57,0,0,1-1.77,1.19,5.31,5.31,0,0,1-2.15.45h-2.56v-3.22h2.56a2.32,2.32,0,0,0,2.34-2.34v-.32a2,2,0,0,0-.59-1.4,1.88,1.88,0,0,0-1.42-.61h-1.31c-.37,0-.56.2-.56.61v1.4h-3.26v-4.3a6.38,6.38,0,0,1,.53-2.56,7,7,0,0,1,1.45-2.13,7.1,7.1,0,0,1,2.12-1.44,6.27,6.27,0,0,1,2.57-.54h3.08a4.61,4.61,0,0,1,3.5,1.49V113h3.22v2.66h1.86v3.32h-1.86V139H266.7v-4.52h-2.29a.94.94,0,0,0-.67.28.83.83,0,0,0-.31.65V139H256.2a4.86,4.86,0,0,1-2-.42,5.42,5.42,0,0,1-2.75-2.75,4.89,4.89,0,0,1-.42-2Z" transform="translate(0)"/><path class="cls-3" d="M270.62,115.61h.93a2.61,2.61,0,0,1,2.19.89v-3.31H277v2.42h2.7v3.22H277v20h-3.23V123.31a5.94,5.94,0,0,0-.76-3.4,2.72,2.72,0,0,0-2.36-1.08Z" transform="translate(0)"/><path class="cls-3" d="M289.05,138.62h-3a6.43,6.43,0,0,1-4.71-1.7,6.26,6.26,0,0,1-1.73-4.65v-2.1a6.5,6.5,0,0,1,2.2-5.08,6.09,6.09,0,0,1-2.2-4.76v-1.5h-1.16v-3.22h18.43v3.22h-1.82v19.93h-3.22v-8.17a3.82,3.82,0,0,0-1.17-2.8,3.89,3.89,0,0,0-2.84-1.16h-1.4a3.53,3.53,0,0,0-2.62,1,3.48,3.48,0,0,0-1,2.56v2.1a3.12,3.12,0,0,0,.8,2.38,3.42,3.42,0,0,0,2.42.75h3ZM286,123.45h1.87a6.93,6.93,0,0,1,4,1.22v-5.84h-9v1.5a3.11,3.11,0,0,0,3.13,3.12Z" transform="translate(0)"/><path class="cls-3" d="M318.31,124.57V128h-9.8v-3.41Z" transform="translate(0)"/><path class="cls-3" d="M341.41,128.49a3.13,3.13,0,0,0,1-2.28v-1.87a2.39,2.39,0,0,0-1.59-2.24l-5.32-1.91a4.28,4.28,0,0,1-2.85-4.06v-.24h3.22v.24a1.08,1.08,0,0,0,.7,1l5.32,1.92a5.69,5.69,0,0,1,2.73,2.07,5.43,5.43,0,0,1,1,3.2v1.87a6.11,6.11,0,0,1-.52,2.47,6.3,6.3,0,0,1-1.42,2,7.25,7.25,0,0,1-2.12,1.38,6.69,6.69,0,0,1-2.62.51l-1.77-.09,8.63,6L344,141.19l-12.46-8.73v-3.41l7.56.33A3.18,3.18,0,0,0,341.41,128.49Z" transform="translate(0)"/><path class="cls-3" d="M365.58,124.67v5.5a7.26,7.26,0,0,1-.59,2.9,7.37,7.37,0,0,1-1.6,2.35A7.91,7.91,0,0,1,361,137a7,7,0,0,1-2.87.58h-1.73a7.21,7.21,0,0,1-2.89-.58,7.76,7.76,0,0,1-2.38-1.59,7.31,7.31,0,0,1-2.2-5.25v-5.5a6.87,6.87,0,0,1,.61-2.87,8.23,8.23,0,0,1,1.61-2.36,7.44,7.44,0,0,1,2.36-1.61,7.21,7.21,0,0,1,2.89-.58h1.73a6.93,6.93,0,0,1,2.84.6,8,8,0,0,1,2.36,1.61,7.78,7.78,0,0,1,1.61,2.36A6.79,6.79,0,0,1,365.58,124.67Zm-3.22,5.5v-5.5a4.22,4.22,0,0,0-4.2-4.2h-1.73a4.29,4.29,0,0,0-1.65.32,4.21,4.21,0,0,0-2.27,2.27,4,4,0,0,0-.33,1.61v5.5a4,4,0,0,0,.33,1.61,4.21,4.21,0,0,0,2.27,2.27,4.29,4.29,0,0,0,1.65.32h1.73a4.22,4.22,0,0,0,4.2-4.2Z" transform="translate(0)"/><path class="cls-3" d="M378.46,128.49a3.13,3.13,0,0,0,1-2.28v-1.87a2.39,2.39,0,0,0-1.59-2.24l-5.32-1.91a4.27,4.27,0,0,1-2.84-4.06v-.24h3.21v.24a1.07,1.07,0,0,0,.71,1l5.32,1.92a5.71,5.71,0,0,1,2.72,2.07,5.43,5.43,0,0,1,1,3.2v1.87a6.1,6.1,0,0,1-.51,2.47,6.33,6.33,0,0,1-1.43,2,7.25,7.25,0,0,1-2.12,1.38,6.69,6.69,0,0,1-2.62.51l-1.77-.09,8.64,6L381,141.19l-12.46-8.73v-3.41l7.56.33A3.18,3.18,0,0,0,378.46,128.49Z" transform="translate(0)"/><path class="cls-3" d="M390.82,130.36h-1.35a1.31,1.31,0,0,0-.52.58,2.08,2.08,0,0,0-.28,1,3,3,0,0,0,.8,2,2.35,2.35,0,0,0,1.77.91h2.85a7.78,7.78,0,0,0,1.63-.19,4.11,4.11,0,0,0,1.52-.68,3.52,3.52,0,0,0,1.09-1.33,4.91,4.91,0,0,0,.42-2.19,8.62,8.62,0,0,0-.37-2.71,5.22,5.22,0,0,0-1.21-2,8,8,0,0,0-2.24-1.56,27.09,27.09,0,0,0-3.46-1.4,11.78,11.78,0,0,1-2.82-1.52A7.83,7.83,0,0,1,387,119.7a4.64,4.64,0,0,1-.77-1.57,5.16,5.16,0,0,1-.19-1.3,1.62,1.62,0,0,1,.14-.89l.47.14c.31.09.66.19,1.05.28s.74.19,1,.28l.51.14a.52.52,0,0,0,0,.23,2,2,0,0,0,.73,1.26,8.12,8.12,0,0,0,2.63,1.54,33.4,33.4,0,0,1,3.67,1.47,12,12,0,0,1,3,2,8.47,8.47,0,0,1,2,2.92,10.48,10.48,0,0,1,.72,4.08,7.49,7.49,0,0,1-2.17,5.79,8,8,0,0,1-5.67,2h-2.89a5.1,5.1,0,0,1-2.26-.52,6,6,0,0,1-1.82-1.35,6.68,6.68,0,0,1-1.24-2,6.06,6.06,0,0,1-.47-2.33,5.23,5.23,0,0,1,.28-1.59,5.55,5.55,0,0,1,.82-1.56,4.73,4.73,0,0,1,1.26-1.19,3,3,0,0,1,1.66-.47h1.35Z" transform="translate(0)"/><path d="M8,177.74a16.23,16.23,0,0,1-4.32-.58A11.24,11.24,0,0,1,0,175.46l1.89-3.69a10.38,10.38,0,0,0,6,1.92,5,5,0,0,0,2.88-.73,2.32,2.32,0,0,0,1.05-2,2.23,2.23,0,0,0-.93-1.89,5.1,5.1,0,0,0-3-.69H5.7V165.2l5.82-6.66.54,1.74h-11v-3.9h14.7v3.15l-5.82,6.63-2.46-1.41H8.88a8.67,8.67,0,0,1,5.86,1.74,5.63,5.63,0,0,1,2,4.44,6.38,6.38,0,0,1-.95,3.36,6.68,6.68,0,0,1-2.86,2.51A11.23,11.23,0,0,1,8,177.74Z" transform="translate(0)"/><path d="M28,177.74a8.47,8.47,0,0,1-4.61-1.27,8.82,8.82,0,0,1-3.21-3.69,15.32,15.32,0,0,1,0-11.79,8.82,8.82,0,0,1,3.21-3.69,9,9,0,0,1,9.24,0A8.82,8.82,0,0,1,35.8,161a15.2,15.2,0,0,1,0,11.79,8.82,8.82,0,0,1-3.21,3.69A8.49,8.49,0,0,1,28,177.74Zm0-4.08a3.4,3.4,0,0,0,2.14-.7,4.64,4.64,0,0,0,1.44-2.21,14.39,14.39,0,0,0,0-7.74,4.6,4.6,0,0,0-1.44-2.2,3.52,3.52,0,0,0-4.24,0,4.63,4.63,0,0,0-1.47,2.2,14.14,14.14,0,0,0,0,7.74A4.67,4.67,0,0,0,25.86,173,3.38,3.38,0,0,0,28,173.66Z" transform="translate(0)"/><path d="M49.14,177.38v-21h9.54a13.31,13.31,0,0,1,6,1.31,9.93,9.93,0,0,1,4.08,3.66,11.16,11.16,0,0,1,0,11.07,9.93,9.93,0,0,1-4.08,3.66,13.31,13.31,0,0,1-6,1.3Zm4.89-4h4.41a7.85,7.85,0,0,0,3.64-.79,5.74,5.74,0,0,0,2.4-2.28,7.45,7.45,0,0,0,0-6.95,5.75,5.75,0,0,0-2.4-2.26,7.85,7.85,0,0,0-3.64-.8H54Z" transform="translate(0)"/><path d="M78.57,177.62a7.38,7.38,0,0,1-3.21-.64,5.05,5.05,0,0,1-2.09-1.76,4.41,4.41,0,0,1-.73-2.49,4.24,4.24,0,0,1,2.94-4.2,11.2,11.2,0,0,1,4-.6h4.26v2.7H80a3.53,3.53,0,0,0-2.27.54,1.72,1.72,0,0,0-.61,1.35,1.69,1.69,0,0,0,.7,1.43,3.14,3.14,0,0,0,1.91.52,4.23,4.23,0,0,0,2.14-.54,3,3,0,0,0,1.34-1.65l.72,2.19a4.26,4.26,0,0,1-1.86,2.33A6.59,6.59,0,0,1,78.57,177.62Zm4.92-.24v-3.15l-.3-.69V167.9a3,3,0,0,0-.92-2.34,4,4,0,0,0-2.8-.84,8.18,8.18,0,0,0-2.54.41,7.07,7.07,0,0,0-2.14,1.09L73.14,163a9.5,9.5,0,0,1,3.18-1.45,14.64,14.64,0,0,1,3.78-.5,8.57,8.57,0,0,1,5.73,1.74q2,1.74,2,5.43v9.21Z" transform="translate(0)"/><path d="M93.84,183.44a8.1,8.1,0,0,1-2.46-.39,5.81,5.81,0,0,1-2-1.08l1.71-3.36a3.72,3.72,0,0,0,1.24.78,4,4,0,0,0,1.43.27,2.39,2.39,0,0,0,1.54-.46,4.07,4.07,0,0,0,1.07-1.55l.84-2,.36-.51,5.82-13.92h4.47l-7.29,17.13a9.92,9.92,0,0,1-1.79,3.08A5.69,5.69,0,0,1,96.52,183,7.65,7.65,0,0,1,93.84,183.44ZM96.6,178l-7.17-16.77h4.8l5.61,13.53Z" transform="translate(0)"/><path d="M114.93,177.62a15.57,15.57,0,0,1-4-.49,10.28,10.28,0,0,1-3-1.25l1.53-3.33a11.73,11.73,0,0,0,2.65,1.1,10.81,10.81,0,0,0,3,.43,4.87,4.87,0,0,0,2.29-.39,1.2,1.2,0,0,0,.68-1.08.92.92,0,0,0-.53-.85,4.57,4.57,0,0,0-1.38-.44c-.57-.1-1.2-.2-1.9-.3a18.86,18.86,0,0,1-2.09-.42,8.09,8.09,0,0,1-1.92-.76,3.78,3.78,0,0,1-1.41-1.37,4.31,4.31,0,0,1-.52-2.25,4.35,4.35,0,0,1,.9-2.71,5.83,5.83,0,0,1,2.55-1.85,10.75,10.75,0,0,1,4-.66,15.55,15.55,0,0,1,3.37.38,10.44,10.44,0,0,1,2.87,1l-1.59,3.33a8.35,8.35,0,0,0-2.33-.93,10.16,10.16,0,0,0-2.26-.27,4.87,4.87,0,0,0-2.34.42,1.24,1.24,0,0,0-.72,1.08,1,1,0,0,0,.54.92,4.24,4.24,0,0,0,1.41.46l1.92.3a18.07,18.07,0,0,1,2.07.42,8.14,8.14,0,0,1,1.9.77,3.76,3.76,0,0,1,1.41,1.36,4.31,4.31,0,0,1,.53,2.25,4.17,4.17,0,0,1-.9,2.63,5.92,5.92,0,0,1-2.6,1.81A11.37,11.37,0,0,1,114.93,177.62Z" transform="translate(0)"/><path d="M134.25,177.38v-21h9.09a11.81,11.81,0,0,1,4.86.92,7.11,7.11,0,0,1,3.15,2.62,8,8,0,0,1,0,8.12,7,7,0,0,1-3.15,2.58,12.16,12.16,0,0,1-4.86.88h-6.42l2.22-2.1v8Zm4.89-7.44-2.22-2.31h6.15a5.1,5.1,0,0,0,3.36-1,3.34,3.34,0,0,0,1.14-2.7,3.28,3.28,0,0,0-1.14-2.68,5.16,5.16,0,0,0-3.36-.95h-6.15l2.22-2.31Zm8.49,7.44-5.28-7.62h5.22l5.28,7.62Z" transform="translate(0)"/><path d="M164,177.62a10.3,10.3,0,0,1-4.83-1.08,8,8,0,0,1-3.21-2.95,8.08,8.08,0,0,1-1.14-4.28,8.4,8.4,0,0,1,1.09-4.29,7.69,7.69,0,0,1,3.06-3,9.16,9.16,0,0,1,4.43-1.07,8.89,8.89,0,0,1,4.27,1,7.67,7.67,0,0,1,3,2.88,8.57,8.57,0,0,1,1.11,4.47c0,.18,0,.39,0,.62s0,.44-.06.64H158.58V167.9h10.65l-1.83.81a4.27,4.27,0,0,0-.48-2.19,3.71,3.71,0,0,0-1.41-1.45,4.09,4.09,0,0,0-2.1-.53,4.2,4.2,0,0,0-2.12.53,3.65,3.65,0,0,0-1.42,1.47,4.62,4.62,0,0,0-.51,2.23v.72a4.43,4.43,0,0,0,.6,2.34,4,4,0,0,0,1.65,1.52,5.58,5.58,0,0,0,2.52.52,6,6,0,0,0,2.23-.39,5.54,5.54,0,0,0,1.79-1.17l2.49,2.7a7.26,7.26,0,0,1-2.79,1.94A10.32,10.32,0,0,1,164,177.62Z" transform="translate(0)"/><path d="M179,177.38l-6.78-16.14H177l5.64,13.89h-2.4l5.88-13.89h4.47l-6.81,16.14Z" transform="translate(0)"/><path d="M194.88,159a3,3,0,0,1-2.13-.75,2.54,2.54,0,0,1,0-3.72,3,3,0,0,1,2.13-.75,3.13,3.13,0,0,1,2.11.71,2.27,2.27,0,0,1,.83,1.81,2.56,2.56,0,0,1-.81,1.94A3,3,0,0,1,194.88,159Zm-2.34,18.39V161.24h4.68v16.14Z" transform="translate(0)"/><path d="M207,177.62a15.57,15.57,0,0,1-4-.49,10.28,10.28,0,0,1-3-1.25l1.53-3.33a11.73,11.73,0,0,0,2.65,1.1,10.81,10.81,0,0,0,3,.43,4.87,4.87,0,0,0,2.29-.39,1.2,1.2,0,0,0,.68-1.08.92.92,0,0,0-.53-.85,4.57,4.57,0,0,0-1.38-.44c-.57-.1-1.2-.2-1.9-.3a18.86,18.86,0,0,1-2.09-.42,8.09,8.09,0,0,1-1.92-.76,3.78,3.78,0,0,1-1.41-1.37,4.31,4.31,0,0,1-.52-2.25,4.35,4.35,0,0,1,.9-2.71,5.83,5.83,0,0,1,2.55-1.85,10.75,10.75,0,0,1,4-.66,15.55,15.55,0,0,1,3.37.38,10.44,10.44,0,0,1,2.87,1l-1.59,3.33a8.35,8.35,0,0,0-2.33-.93,10.16,10.16,0,0,0-2.26-.27,4.87,4.87,0,0,0-2.34.42,1.24,1.24,0,0,0-.72,1.08,1,1,0,0,0,.54.92,4.24,4.24,0,0,0,1.41.46l1.92.3a18.07,18.07,0,0,1,2.07.42,8.14,8.14,0,0,1,1.9.77,3.76,3.76,0,0,1,1.41,1.36,4.31,4.31,0,0,1,.53,2.25,4.17,4.17,0,0,1-.9,2.63,5.92,5.92,0,0,1-2.6,1.81A11.37,11.37,0,0,1,207,177.62Z" transform="translate(0)"/><path d="M219.84,159a3,3,0,0,1-2.13-.75,2.54,2.54,0,0,1,0-3.72,3,3,0,0,1,2.13-.75,3.13,3.13,0,0,1,2.11.71,2.27,2.27,0,0,1,.83,1.81,2.56,2.56,0,0,1-.81,1.94A3,3,0,0,1,219.84,159Zm-2.34,18.39V161.24h4.68v16.14Z" transform="translate(0)"/><path d="M234.18,177.62a9.41,9.41,0,0,1-4.55-1.08A8.39,8.39,0,0,1,226.5,165a8,8,0,0,1,3.13-2.94,9.52,9.52,0,0,1,4.55-1.07,9.66,9.66,0,0,1,4.59,1.07,8,8,0,0,1,3.15,2.94,8.17,8.17,0,0,1-3.15,11.53A9.54,9.54,0,0,1,234.18,177.62Zm0-3.84a4.15,4.15,0,0,0,2.11-.52,3.86,3.86,0,0,0,1.47-1.55,5,5,0,0,0,.56-2.4,4.84,4.84,0,0,0-.56-2.4,3.88,3.88,0,0,0-1.47-1.51,4.1,4.1,0,0,0-2.08-.53,4.2,4.2,0,0,0-2.1.53,3.86,3.86,0,0,0-1.49,1.51,4.84,4.84,0,0,0-.55,2.4,5,5,0,0,0,.55,2.4,3.84,3.84,0,0,0,1.49,1.55A4.13,4.13,0,0,0,234.18,173.78Z" transform="translate(0)"/><path d="M256,161a7.5,7.5,0,0,1,3.43.77,5.56,5.56,0,0,1,2.39,2.34,8.27,8.27,0,0,1,.87,4v9.24H258v-8.52a4.15,4.15,0,0,0-.86-2.88,3.1,3.1,0,0,0-2.41-.93,4.14,4.14,0,0,0-2,.48,3.35,3.35,0,0,0-1.38,1.41,5.25,5.25,0,0,0-.49,2.46v8h-4.68V161.24h4.47v4.47l-.84-1.35a6,6,0,0,1,2.49-2.49A7.68,7.68,0,0,1,256,161Z" transform="translate(0)"/><path d="M275.73,177.38v-21h9.09a11.81,11.81,0,0,1,4.86.92,7.16,7.16,0,0,1,3.15,2.62,7.28,7.28,0,0,1-3.15,10.74,11.64,11.64,0,0,1-4.86.93H278.4l2.22-2.19v8Zm4.89-7.44-2.22-2.31h6.14a5.11,5.11,0,0,0,3.37-1A3.33,3.33,0,0,0,289,164a3.27,3.27,0,0,0-1.13-2.68,5.17,5.17,0,0,0-3.37-.95H278.4l2.22-2.31Z" transform="translate(0)"/><path d="M297.06,177.38V161.24h4.47v4.59l-.63-1.35a5.17,5.17,0,0,1,2.31-2.59,7.85,7.85,0,0,1,3.87-.89v4.35l-.53-.09-.49,0a4.39,4.39,0,0,0-3.15,1.11,4.51,4.51,0,0,0-1.17,3.42v7.62Z" transform="translate(0)"/><path d="M317.37,177.62a9.41,9.41,0,0,1-4.55-1.08A8.39,8.39,0,0,1,309.69,165a8,8,0,0,1,3.13-2.94,9.52,9.52,0,0,1,4.55-1.07,9.66,9.66,0,0,1,4.59,1.07,8.37,8.37,0,0,1,3.15,11.53,8.19,8.19,0,0,1-3.15,2.94A9.54,9.54,0,0,1,317.37,177.62Zm0-3.84a4.15,4.15,0,0,0,2.11-.52,3.86,3.86,0,0,0,1.47-1.55,5,5,0,0,0,.56-2.4,4.84,4.84,0,0,0-.56-2.4,3.88,3.88,0,0,0-1.47-1.51,4.1,4.1,0,0,0-2.08-.53,4.2,4.2,0,0,0-2.1.53,3.86,3.86,0,0,0-1.49,1.51,4.84,4.84,0,0,0-.55,2.4,5,5,0,0,0,.55,2.4,3.84,3.84,0,0,0,1.49,1.55A4.13,4.13,0,0,0,317.37,173.78Z" transform="translate(0)"/><path d="M336.21,176.6a8.41,8.41,0,0,1-4-1,7.49,7.49,0,0,1-2.91-2.73,8.36,8.36,0,0,1,0-8.22,7.4,7.4,0,0,1,2.91-2.72,8.52,8.52,0,0,1,4-1,7.61,7.61,0,0,1,3.64.83,5.68,5.68,0,0,1,2.42,2.56,11.59,11.59,0,0,1,0,8.81,5.78,5.78,0,0,1-2.42,2.56A7.5,7.5,0,0,1,336.21,176.6Zm.75,6.84a17.28,17.28,0,0,1-4.4-.55,9.52,9.52,0,0,1-3.52-1.67l1.86-3.39a7.68,7.68,0,0,0,2.59,1.37,10.24,10.24,0,0,0,3.14.49,5,5,0,0,0,3.6-1.11,4.41,4.41,0,0,0,1.14-3.3v-2.4l.3-4.08-.09-4.11v-3.45H346v13.44q0,4.47-2.34,6.62T337,183.44Zm.21-10.65a4.6,4.6,0,0,0,2.19-.51,3.78,3.78,0,0,0,1.5-1.41,4.26,4.26,0,0,0,0-4.15,3.62,3.62,0,0,0-1.5-1.37,5.21,5.21,0,0,0-4.37,0,3.7,3.7,0,0,0-1.53,1.37,3.92,3.92,0,0,0,1.53,5.56A4.64,4.64,0,0,0,337.17,172.79Z" transform="translate(0)"/><path d="M350.37,177.38V161.24h4.47v4.59l-.63-1.35a5.17,5.17,0,0,1,2.31-2.59,7.85,7.85,0,0,1,3.87-.89v4.35l-.53-.09-.49,0a4.39,4.39,0,0,0-3.15,1.11,4.51,4.51,0,0,0-1.17,3.42v7.62Z" transform="translate(0)"/><path d="M367.11,177.62a7.38,7.38,0,0,1-3.21-.64,5.05,5.05,0,0,1-2.09-1.76,4.41,4.41,0,0,1-.73-2.49,4.24,4.24,0,0,1,2.94-4.2,11.2,11.2,0,0,1,4-.6h4.26v2.7h-3.78a3.53,3.53,0,0,0-2.27.54,1.72,1.72,0,0,0-.61,1.35,1.69,1.69,0,0,0,.7,1.43,3.14,3.14,0,0,0,1.91.52,4.23,4.23,0,0,0,2.14-.54,3,3,0,0,0,1.34-1.65l.72,2.19a4.26,4.26,0,0,1-1.86,2.33A6.59,6.59,0,0,1,367.11,177.62Zm4.92-.24v-3.15l-.3-.69V167.9a3,3,0,0,0-.92-2.34,4,4,0,0,0-2.8-.84,8.18,8.18,0,0,0-2.54.41,7.07,7.07,0,0,0-2.14,1.09L361.68,163a9.5,9.5,0,0,1,3.18-1.45,14.64,14.64,0,0,1,3.78-.5,8.57,8.57,0,0,1,5.73,1.74q2,1.74,2,5.43v9.21Z" transform="translate(0)"/><path d="M401.31,161a7.34,7.34,0,0,1,3.4.77,5.43,5.43,0,0,1,2.33,2.34,8.52,8.52,0,0,1,.84,4v9.24H403.2v-8.52a4.36,4.36,0,0,0-.8-2.88,2.77,2.77,0,0,0-2.23-.93,3.65,3.65,0,0,0-1.86.47,3.06,3.06,0,0,0-1.25,1.38,5.57,5.57,0,0,0-.43,2.38v8.1H392v-8.52a4.36,4.36,0,0,0-.8-2.88,2.84,2.84,0,0,0-2.29-.93,3.61,3.61,0,0,0-1.83.47,3.14,3.14,0,0,0-1.26,1.38,5.4,5.4,0,0,0-.45,2.38v8.1h-4.68V161.24h4.47v4.38l-.84-1.26a5.57,5.57,0,0,1,2.37-2.5,7.16,7.16,0,0,1,3.51-.86,6.89,6.89,0,0,1,3.9,1.13,5.4,5.4,0,0,1,2.22,3.43l-1.65-.45a6.59,6.59,0,0,1,2.58-3A7.5,7.5,0,0,1,401.31,161Z" transform="translate(0)"/></g></g></svg>