<?xml version="1.0" encoding="utf-8"?>
<!-- Generator: Adobe Illustrator 24.1.0, SVG Export Plug-In . SVG Version: 6.00 Build 0)  -->
<svg version="1.1" id="Layer_1" xmlns="http://www.w3.org/2000/svg" xmlns:xlink="http://www.w3.org/1999/xlink" x="0px" y="0px"
	 viewBox="0 0 407.9 183.4" style="enable-background:new 0 0 407.9 183.4;" xml:space="preserve">
<style type="text/css">
	.st0{fill:#222222;}
	.st1{fill:#588EEB;}
	.st2{fill:#FFFFFF;}
</style>
<g id="Layer_2_1_">
	<g id="Layer_1-2">
		<path class="st0" d="M233.8,60v-7.3h4.8V60h7.3v4.8h-7.3v7.3h-4.8v-7.3h-7.3V60H233.8z"/>
		<path class="st0" d="M248.9,50.9V39.4c0-1.7,0.5-3.4,1.6-4.8c1-1.4,2.2-2.6,3.6-3.5h4.1v3.8h-0.9c-1.2,0-2.4,0.5-3.2,1.3
			c-0.9,0.8-1.4,2-1.4,3.2v11.5c0,1,0.4,2,1.1,2.7c0.7,0.7,1.7,1.1,2.7,1.1h1.3v3.8h-1.3c-1,0-2-0.2-3-0.6c-1.8-0.8-3.3-2.2-4.1-4
			C249.1,53,248.9,51.9,248.9,50.9z"/>
		<path class="st0" d="M270.1,58.3h-3.5c-2,0.1-4.1-0.6-5.6-2c-1.4-1.5-2.1-3.4-2-5.5v-2.5c-0.1-2.3,0.9-4.5,2.6-6
			c-1.7-1.4-2.6-3.4-2.6-5.6v-1.8h-1.4v-3.8h21.8v3.8h-2.1v23.5h-3.8v-9.6c0-1.2-0.5-2.4-1.4-3.3c-0.9-0.9-2.1-1.4-3.4-1.4H267
			c-1.1-0.1-2.3,0.4-3.1,1.2c-0.8,0.8-1.2,1.9-1.1,3v2.5c-0.1,1,0.2,2,0.9,2.8c0.8,0.6,1.8,1,2.9,0.9h3.5L270.1,58.3z M266.5,40.4
			h2.2c1.7,0,3.3,0.5,4.7,1.4v-6.9h-10.6v1.8C262.8,38.7,264.4,40.3,266.5,40.4C266.4,40.4,266.4,40.4,266.5,40.4z"/>
		<path class="st0" d="M298.9,24.8L298.9,24.8c-1-1-2.1-1.8-3.3-2.5c-1.3-0.8-2.8-1.1-4.4-1.1c-1.3-0.1-2.6,0.2-3.7,0.9
			c-0.8,0.5-1.4,1.2-1.9,2c-0.4,0.6-0.6,1.3-0.7,2c-0.1,0.6-0.1,1-0.1,1.1v4h2.2V35h-2.2v23.5h-3.8V34.9h-2.3v-3.8h2.3v-3.9
			c0-0.9,0.2-1.9,0.4-2.8c0.3-1.2,0.8-2.3,1.5-3.2c0.8-1.1,1.8-2,3-2.7c1.5-0.8,3.3-1.2,5-1.1c1.1,0,2.3,0.1,3.4,0.4
			c1,0.3,2,0.6,2.9,1.1c0.8,0.4,1.6,0.9,2.3,1.4c0.7,0.5,1.2,1,1.8,1.5l0.1,0.1L298.9,24.8z"/>
		<path class="st0" d="M286.7,34.9v-3.8h26.9v3.8h-13.4v9.6h0.2h0.2c0.6,0,1.2-0.1,1.8-0.2c0.7-0.1,1.3-0.4,1.8-0.8
			c0.7-0.4,1.3-0.9,1.8-1.5c0.6-0.8,1.2-1.6,1.5-2.6v-1h3.8v10.4c0,1.4-0.3,2.7-0.8,3.9c-0.5,1.2-1.3,2.3-2.2,3.2
			c-0.9,0.9-2,1.7-3.2,2.2c-1.3,0.6-2.6,0.8-4,0.8h-2.9c-1.4,0-2.7-0.3-4-0.8c-1.2-0.5-2.3-1.3-3.2-2.2c-0.9-0.9-1.6-2-2.1-3.2
			c-0.5-1.3-0.8-2.6-0.8-4v-8.4h3.8v8.5c0,0.9,0.2,1.7,0.5,2.5c0.3,0.8,0.8,1.5,1.4,2.1c0.6,0.6,1.2,1.1,2,1.4
			c0.8,0.3,1.6,0.5,2.5,0.5h2.9c0.9,0,1.7-0.2,2.5-0.5c0.8-0.3,1.4-0.8,2-1.4c0.6-0.6,1-1.3,1.4-2.1c0.4-0.8,0.5-1.6,0.5-2.5v-2.9
			c-1.9,1.5-4.2,2.3-6.6,2.4c-0.6,0-1.2,0-1.7,0c-0.5,0-1-0.1-1.5-0.3l-1.4-0.4V34.9H286.7z"/>
		<path class="st0" d="M268.8,94.4h-3c-5.1-0.1-9.1-1.6-11.8-4.6c-0.8-0.9-1.5-1.9-2-2.9c-0.5-1-0.8-2-1.1-3
			c-0.2-0.9-0.4-1.7-0.5-2.6c-0.1-0.7-0.1-1.3-0.1-2c0-0.3,0-0.5,0-0.7s0-0.3,0-0.3l0.1-1.1l14.5-6v-0.3h-16.1v-3.8H271v3.8h-2.1
			L268.8,94.4z M256.9,87.3c1.8,2,4.5,3.2,8.1,3.5V75.3l-10.9,4.5c0,0.5,0,1,0.1,1.5c0.1,0.6,0.2,1.3,0.4,1.9c0.2,0.7,0.5,1.4,0.9,2
			C255.9,86,256.4,86.7,256.9,87.3L256.9,87.3z"/>
		<path class="st0" d="M269.7,67.1h1.1c1-0.1,1.9,0.3,2.6,1.1v-3.9h3.8v2.9h3.2v3.8h-3.2v23.6h-3.8V76.2c0.1-1.4-0.2-2.8-0.9-4
			c-0.7-0.9-1.7-1.3-2.8-1.3L269.7,67.1z"/>
		<path class="st0" d="M280.4,87V75.5c0-1.6,0.5-3.2,1.4-4.6h-3.2v-3.8h11v3.8h-0.9c-1.2,0-2.4,0.5-3.2,1.3c-0.9,0.9-1.3,2-1.3,3.2
			V87c0,1,0.4,2,1.1,2.7c0.7,0.7,1.7,1.2,2.7,1.1h1.3v3.8H288c-1,0-2.1-0.2-3-0.6c-0.9-0.4-1.7-0.9-2.4-1.6
			C281.2,91,280.4,89,280.4,87L280.4,87z"/>
		<path class="st0" d="M288.8,70.9v-3.8h22.5v3.8h-2.1v23.5h-2.8c-2.6,0.1-5.1-0.3-7.5-1.2c-2-0.7-3.8-1.9-5.2-3.4
			c-0.6-0.7-1.1-1.4-1.5-2.3c-0.7-1.3-1.1-2.7-1.3-4.1c-0.1-0.5-0.1-1-0.1-1.4c0-0.3,0-0.6,0.1-0.8l0.1-1.2l5.9-2.3
			c0.1,0,0.3-0.2,0.4-0.5c0.2-0.4,0.2-0.9,0.2-1.3c0-0.7-0.1-1.1-0.4-1.3l-5.2-3.7L288.8,70.9z M296.6,93.5l-0.8,3.7
			c-0.7-0.1-1.5-0.4-2.1-0.7c-1-0.5-2-1.2-2.8-2c-0.2-0.2-0.3-0.3-0.5-0.5l2.9-2.4c0.3,0.3,0.5,0.6,0.9,0.8
			C294.9,92.9,295.7,93.3,296.6,93.5z M305.4,90.9V70.9h-7l0.8,0.6c0.7,0.5,1.2,1.1,1.5,1.9c0.3,0.8,0.5,1.7,0.5,2.6
			c0,1.2-0.3,2.3-0.9,3.4c-0.5,0.9-1.3,1.5-2.2,1.9l-3.6,1.4c0.1,0.9,0.3,1.8,0.7,2.7c0.5,1,1.1,1.8,1.9,2.5c1,0.9,2.1,1.5,3.3,2
			C302,90.5,303.7,90.8,305.4,90.9L305.4,90.9z"/>
		<path class="st0" d="M310.1,67.1h1.1c1-0.1,1.9,0.3,2.6,1.1v-3.9h3.8v2.9h3.2v3.8h-3.2v23.6h-3.8V76.2c0.1-1.4-0.2-2.8-0.9-4
			c-0.7-0.9-1.7-1.3-2.8-1.3V67.1z"/>
		<path class="st0" d="M319.2,70.9v-3.8h29.5v3.8h-2.1v23.5h-3.8V80.1c0-1.4-1.1-2.5-2.5-2.5h-0.4c-0.5,0-0.9,0.2-1.2,0.5
			c-0.3,0.3-0.5,0.8-0.5,1.2V84h-3.8v-3.8c-0.2-0.9-0.7-1.6-1.5-2c-0.8-0.5-1.6-0.7-2.5-0.7h-1.2c-0.6,0-1.3,0.1-1.8,0.4
			c-0.6,0.2-1.1,0.6-1.5,1c-0.4,0.4-0.8,0.9-1,1.5c-0.2,0.6-0.4,1.2-0.4,1.8v2.5c0,1.3,0.5,2.5,1.4,3.4c0.9,0.9,2.1,1.4,3.4,1.4h2.6
			v3.7h-2.6c-1.1,0-2.3-0.2-3.3-0.7c-1-0.4-1.9-1-2.7-1.8c-0.8-0.8-1.4-1.7-1.8-2.7c-0.5-1.1-0.7-2.2-0.7-3.4v-2.5
			c0-1.1,0.2-2.3,0.7-3.3c0.4-1,1.1-1.9,1.9-2.7c0.8-0.8,1.7-1.4,2.7-1.8c1-0.4,2.1-0.7,3.2-0.7h1.2c1.9,0,3.8,0.6,5.3,1.9
			c1-1.2,2.5-1.9,4.1-1.9h0.4c0.9,0,1.7,0.2,2.5,0.6v-3.4H319.2z"/>
		<path class="st0" d="M368.4,60.8L368.4,60.8c-1.1-0.9-2.1-1.7-3.3-2.4c-1.3-0.8-2.8-1.1-4.4-1.1c-1.3-0.1-2.6,0.2-3.7,0.9
			c-0.8,0.5-1.4,1.2-1.9,2c-0.4,0.6-0.6,1.3-0.7,2c-0.1,0.6-0.1,1-0.1,1.1v4h2.3v3.8h-2.3v23.4h-3.8V70.9h-2.3v-3.8h2.3v-3.9
			c0-0.9,0.2-1.9,0.4-2.8c0.3-1.2,0.8-2.3,1.5-3.2c0.8-1.1,1.8-2,3-2.7c1.5-0.8,3.2-1.2,5-1.1c1.1,0,2.3,0.1,3.4,0.4
			c1,0.3,1.9,0.6,2.9,1.1c0.8,0.4,1.6,0.9,2.3,1.4c0.7,0.5,1.2,1,1.8,1.5l0.1,0.1L368.4,60.8z"/>
		<path class="st0" d="M356.2,70.9v-3.8h31.9v3.8h-13.9c0.5,0.4,1,0.8,1.5,1.1c0.7,0.4,1.4,0.8,2.1,1c1.1,0.3,2.2,0.6,3.3,0.8
			c1.6,0.2,3.2,0.4,4.9,0.4v20.6h-3.8V77.8c-2.5-0.2-5-0.9-7.3-2c-1.5-0.8-2.9-1.8-4.1-3l-1.6,1.2c-1.1,0.9-1.7,2.3-1.7,3.7v1.8
			c0,0.8,0.3,1.6,0.9,2.2c0.5,0.6,1.3,0.9,2.1,0.9h1.3c0.4,0,0.7,0,1.1-0.1c0.5-0.1,0.9-0.2,1.4-0.4c0.5-0.2,0.9-0.6,1.2-1
			c0.4-0.5,0.6-1.1,0.5-1.8v-0.9h3.8v6.1c0,1.4-0.2,2.7-0.7,4c-0.4,1.2-1.1,2.3-1.9,3.2c-1.7,1.9-4.1,3-6.6,2.9h-2.8
			c-1.4,0-2.7-0.3-4-0.8c-1.2-0.5-2.3-1.3-3.2-2.2c-0.9-0.9-1.7-2-2.2-3.2c-0.5-1.3-0.8-2.6-0.8-4V76h3.8v8.5c0,0.9,0.2,1.7,0.5,2.5
			c0.3,0.8,0.8,1.4,1.4,2c0.6,0.6,1.3,1,2,1.4c0.8,0.4,1.6,0.5,2.5,0.5h2.8c1.5,0.1,2.9-0.5,3.9-1.7c0.9-1.1,1.5-2.4,1.6-3.8
			c-1.3,0.6-2.7,0.9-4.1,0.9h-1.3c-0.9,0-1.8-0.2-2.6-0.5c-0.8-0.3-1.6-0.8-2.2-1.4c-1.3-1.3-2-3-2-4.9v-1.8c0-2.6,1.1-5,3.1-6.6
			l0.3-0.2H356.2z"/>
		<path class="st1" d="M322.3,0.1c-0.7,0.2-1.4,0.6-1.8,1.3c-0.2,0.5-0.4,0.6-0.8,0.7c-1.7,0.5-3,1.9-3.4,3.7
			c-0.1,0.4-0.1,2.7-0.1,7v6.4h-1.9v1.4c-0.1,2.2,0.4,4.4,1.5,6.3c1.7,3.3,4.6,5.7,8.2,6.8l0.9,0.3l0,1.9c-0.1,0.9,0,1.7,0.3,2.5
			c0.4,0.9,1.2,1.6,2.1,1.8h0.3l0.1,2c0.1,1,0.2,2,0.4,3c1.1,4.4,4.4,7.9,8.8,9.2c0.6,0.1,1.1,0.2,1.7,0.3c6.5,0.7,12.3-4.5,13-11.5
			c0.1-0.7,0.1-5,0.1-11c0-9.5,0-9.9,0.2-10.7c0.6-2.8,3.1-4.9,6-5c1.5,0,3,0.6,4.1,1.7c0.5,0.5,0.9,1,1.3,1.6
			c0.6,1.1,0.9,2.4,0.9,3.7l0.1,1.5l-0.6,0.1c-1.6,0.4-3.1,1.4-4,2.8c-2.1,3-1.3,7.2,1.7,9.3c2.8,1.9,6.6,1.5,8.8-1.1
			c2.4-2.6,2.3-6.7-0.3-9.2c-0.8-0.9-1.9-1.5-3.1-1.8l-0.6-0.1l-0.1-1.6c0-1.3-0.2-2.5-0.7-3.7c-0.9-2.3-2.8-4-5.1-4.8
			c-1.3-0.4-2.7-0.4-4-0.2c-3,0.8-5.3,3-6.2,6l-0.3,0.8l-0.1,11c-0.1,11.8,0,11.4-0.6,13.2c-0.4,1.1-1,2.2-1.7,3.2
			c-4.5,6-13.2,5.1-16.6-1.8c-0.8-1.5-1.2-3.2-1.1-4.9l-0.1-1.9l0.3-0.1c1-0.2,1.8-0.9,2.2-1.8c0.3-0.8,0.4-1.7,0.3-2.5l0-1.9
			l0.9-0.3c3.5-1.1,6.5-3.6,8.2-6.8c1-1.9,1.5-4.1,1.5-6.3v-1.4h-1.9V13c0-3.5-0.1-6.5-0.1-6.9c-0.1-1-0.6-1.9-1.3-2.6
			c-0.5-0.6-1.3-1.1-2.1-1.3c-0.5-0.1-0.6-0.2-0.9-0.8c-0.8-1.3-2.6-1.7-3.9-0.9c-0.4,0.3-0.7,0.6-1,1.1c-0.3,0.8-0.3,1.8,0,2.6
			c0.3,0.6,0.8,1.1,1.5,1.3c0.7,0.2,1.5,0.2,2.2,0c0.6-0.3,1-0.7,1.4-1.3c0.1-0.5,1.1,0.1,1.8,1c0.3,0.4,0.3,0.6,0.4,1.6
			c0,0.6,0.1,3.7,0.1,6.8v5.6h-1.9l-0.1,1.5c0,1.3-0.3,2.6-0.8,3.7c-1.7,3.5-6.2,5.2-10.2,3.8c-2-0.7-3.7-2.2-4.6-4.2
			c-0.5-1.1-0.7-2.3-0.6-3.6v-1.4h-2.9v-6.6V6l0.3-0.6c0.4-0.6,0.9-1.1,1.7-1.3c0.1,0,0.3,0.2,0.4,0.5c0.7,1,1.8,1.4,3,1.2
			c1.5-0.3,2.5-1.9,2.2-3.4C325.4,0.7,323.9-0.2,322.3,0.1z M323.7,2.2c0.3,0.4,0.3,1-0.1,1.3c-0.2,0.2-0.4,0.2-0.6,0.2
			c-0.2,0-0.4-0.1-0.6-0.2c-0.4-0.4-0.4-1-0.1-1.4c0.1-0.1,0.1-0.1,0.2-0.2C323,1.8,323.4,1.9,323.7,2.2z M334.9,2
			c0.4,0.2,0.6,0.6,0.5,1.1c-0.1,0.5-0.6,0.8-1.1,0.7c-0.2,0-0.3-0.1-0.4-0.2c-0.6-0.6-0.3-1.4,0.6-1.6C334.6,1.9,334.8,1.9,334.9,2
			z M319.2,21.6c0.3,5.1,4.5,9,9.6,9c2.1,0.1,4.1-0.4,5.9-1.5c2.6-1.6,4.3-4.3,4.6-7.3l0.1-0.8h1.9l-0.1,0.9
			c-0.5,4.6-3.6,8.4-7.9,9.9c-3.4,1.2-7.1,1-10.4-0.6c-1.8-0.9-3.3-2.2-4.5-3.8c-1.2-1.6-1.9-3.5-2.1-5.5l-0.1-0.9h3V21.6z
			 M366.7,27.1c0.8,0.3,1.6,0.8,2.1,1.4c1.7,2,1.5,5-0.5,6.8c-0.3,0.3-0.7,0.5-1.1,0.7c-0.5,0.3-1.2,0.4-1.8,0.4
			c-1.3,0.1-2.5-0.3-3.5-1.2c-1.9-1.8-2.1-4.8-0.3-6.7C363,27.1,364.9,26.5,366.7,27.1z M330.7,35.7c0,1.4-0.1,2.2-0.5,2.5
			c-0.9,0.3-1.9,0.3-2.9,0c-0.3-0.3-0.5-1-0.5-2.5v-1.3h3.8V35.7z"/>
		<path class="st1" d="M364.6,28.9c-0.6,0.1-1.1,0.4-1.5,0.9c-1,1.1-1,2.9,0.2,3.9c0.5,0.4,1.1,0.7,1.7,0.7c1.1,0.2,2.2-0.4,2.7-1.4
			c0.4-0.7,0.5-1.4,0.3-2.2C367.6,29.4,366.1,28.6,364.6,28.9z M365.6,30.8c0.5,0.2,0.7,0.7,0.6,1.2c-0.1,0.4-0.5,0.6-0.9,0.6
			c-0.5,0-0.9-0.5-0.9-1c0-0.4,0.3-0.7,0.6-0.8l0.2-0.1C365.3,30.7,365.4,30.7,365.6,30.8L365.6,30.8z"/>
		<path class="st1" d="M70.7,41.7v15.5h-9v-5.9h-7.3v14.2h10.1l6.2,3.1v28.4H24.2l-5.6-29.7l5-25.8H38v9.7h-6.2l-3.2,16.1l3.8,20
			h28.3V75.3h-9.8l-6.2-3.6v-30L70.7,41.7z"/>
		<path class="st1" d="M79,41.7h10.6v55.5H79V41.7z"/>
		<path class="st1" d="M160.3,35h-13.6v0.2H137v-6.8h-9.2l-19,6.8v62H98V26.8l26.6-8.1h22.2V35l16.8-15l6.3,4.4L160.3,35z"/>
		<path class="st1" d="M139.8,83.3l-2.8,13.9H117v-9.7h10.9l3.5-17.7L117,66.6V41.7h41.9v55.5H148v-8.8L139.8,83.3z M147.8,77.3
			V51.4h-19.6v7.4l15.9,3.4l-2.2,11.3L147.8,77.3z"/>
		<path class="st1" d="M178,97.2h-10.7V23.5l31-9.4h22.2v16.4h-9.8v-6.8h-9.2L178,32.2V97.2z"/>
		<path class="st1" d="M222.6,51.4h-26v36.8h15.5v-9.7l-1.5-3.7h-7.9V64.1h17.4l2.5,10.6v22.5h-36.3V41.7h26.6v-5h-15.7l-5.4-11.9
			l-2.8-6.5h10.8l3.6,8.1h19.3V51.4z"/>
		<path class="st1" d="M3.2,107.6h400.2c1.2,0,2.2,1,2.2,2.2v33c0,1.2-1,2.2-2.2,2.2H3.2C2,145,1,144,1,142.8v-33
			C1,108.6,2,107.6,3.2,107.6z"/>
		<path class="st2" d="M6,132.4v-9.7c0-1.5,0.4-2.9,1.3-4.1c0.8-1.2,1.9-2.2,3.1-3h3.4v3.2h-0.7c-1,0-2,0.4-2.7,1.2
			c-0.7,0.7-1.2,1.7-1.1,2.7v9.7c0,0.9,0.4,1.7,1,2.3c0.6,0.6,1.4,0.9,2.3,0.9h1.1v3.2h-1.1c-0.9,0-1.7-0.2-2.5-0.5
			c-0.8-0.3-1.5-0.8-2.1-1.4c-0.6-0.6-1.1-1.3-1.4-2.1C6.2,134.1,6,133.3,6,132.4z"/>
		<path class="st2" d="M23.7,125.8c-0.7-0.4-1.4-0.9-1.9-1.6c-1.1,1.3-2.8,2.1-4.6,2.1h-2.6v-3.2h2.6c1.6,0,2.8-1.3,2.8-2.9
			c0,0,0,0,0,0v-1.4h-6.9v-3.2h17.2c1.6,0,2.4,1.1,2.4,3.2v2.1c0,0.6-0.1,1.1-0.3,1.7c-0.2,0.6-0.5,1.1-0.8,1.6
			c-0.4,0.5-0.8,1-1.4,1.3c-0.5,0.4-1.2,0.6-1.8,0.7H25C24.6,126.2,24.1,126,23.7,125.8z M29.7,120.9v-2.1H24v2.3
			c0,0.5,0.2,1,0.6,1.4c0.4,0.4,0.9,0.6,1.4,0.6h1.5C28.7,123.1,29.6,122.1,29.7,120.9L29.7,120.9z"/>
		<path class="st2" d="M44,112.9h3.2v2.8H49v3.2h-1.8v19.9H44V129l-11.2,4.5l-1.2-3l3.8-1.5v-2.8c0-0.4-0.2-0.6-0.5-0.6H30v-5.9
			c0-0.5,0.1-1.1,0.3-1.6c0.2-0.5,0.5-0.9,0.9-1.3c0.4-0.4,0.8-0.7,1.3-0.9c0.5-0.2,1.1-0.3,1.6-0.3h5.4c1.6,0,3.2,0.5,4.4,1.5
			L44,112.9z M38.6,127.7l5.4-2.1V123l-1.3-2.7c-0.4-0.4-0.8-0.8-1.3-1c-0.6-0.3-1.2-0.4-1.8-0.4h-5.4c-0.2,0-0.5,0.1-0.7,0.3
			c-0.2,0.2-0.3,0.4-0.3,0.6v2.8h2c1.8,0,3.3,1.5,3.3,3.3L38.6,127.7z"/>
		<path class="st2" d="M71.7,115.6v3.2h-1.9v19.9h-3.2v-15.9c0-1-0.3-2.1-1-2.8c-0.6-0.7-1.5-1.2-2.5-1.2h-0.9c-1,0-1.9,0.4-2.5,1.2
			c-0.7,0.8-1,1.8-1,2.8v0.9c0,1,0.3,2.1,1,2.8c0.6,0.7,1.5,1.2,2.4,1.2h2v3.3h-2c-2.1,0-4-1-5.2-2.7c-1.2,1.7-3.1,2.7-5.2,2.7h-2
			v-3.2h2c1,0,1.9-0.4,2.5-1.2c0.7-0.8,1-1.8,1-2.8v-0.9c0-1-0.3-2.1-1-2.8c-0.6-0.7-1.5-1.2-2.5-1.2h-3.7v-3.2h3.7
			c2.1,0,4,1,5.2,2.7c1.2-1.7,3.1-2.7,5.2-2.7h0.9c1.2,0,2.5,0.4,3.5,1.1v-3.8h3.2v2.8L71.7,115.6z"/>
		<path class="st2" d="M70.6,115.6h0.9c0.8-0.1,1.6,0.3,2.2,0.9v-3.3h3.2v2.4h2.7v3.2h-2.7v20h-3.2v-15.5c0.1-1.2-0.2-2.4-0.8-3.4
			c-0.6-0.7-1.4-1.1-2.4-1.1L70.6,115.6z"/>
		<path class="st2" d="M78.4,118.8v-3.2h25v3.2h-1.8v19.9h-3.2v-12.2c0-1.2-1-2.2-2.2-2.2l0,0h-0.3c-0.4,0-0.7,0.2-1,0.4
			c-0.3,0.3-0.4,0.6-0.4,1v4.1h-3.2v-3.2c-0.1-0.7-0.6-1.3-1.2-1.7c-0.6-0.4-1.4-0.6-2.1-0.6h-1c-0.5,0-1.1,0.1-1.6,0.3
			c-0.5,0.2-0.9,0.5-1.3,0.9c-0.4,0.4-0.7,0.8-0.9,1.3c-0.2,0.5-0.3,1-0.3,1.6v2.1c0,1.1,0.4,2.1,1.1,2.9c0.7,0.8,1.8,1.2,2.8,1.2
			H89v3.2h-2.2c-1.9,0-3.7-0.7-5.1-2.1c-0.7-0.7-1.2-1.4-1.6-2.3c-0.4-0.9-0.6-1.9-0.6-2.8v-2.1c0-1,0.2-1.9,0.6-2.8
			c0.4-0.9,0.9-1.6,1.6-2.3c0.7-0.6,1.5-1.2,2.3-1.5c0.9-0.4,1.8-0.6,2.8-0.6h1c1.7,0,3.3,0.5,4.5,1.6c0.9-1,2.2-1.6,3.5-1.6h0.3
			c0.7,0,1.5,0.1,2.2,0.5v-2.8L78.4,118.8z"/>
		<path class="st2" d="M131.7,118.8v21.3h-3.2v-1.4l0,0v-1.2H126c-0.2,0-0.5,0.1-0.7,0.2c-0.2,0.2-0.3,0.4-0.3,0.7v2.3h-6.3
			c-0.7,0-1.4-0.1-2-0.4c-0.6-0.3-1.1-0.6-1.6-1.1c-0.5-0.5-0.8-1-1.1-1.6c-0.3-0.6-0.4-1.3-0.4-2v-1.7h3.2v1.7c0,0.5,0.2,1,0.6,1.3
			c0.3,0.3,0.8,0.5,1.3,0.5h3.3c0.2-0.9,0.7-1.7,1.4-2.3c0.7-0.6,1.7-1,2.6-0.9h2.5V129l-11.2,4.5l-1.2-3l3.7-1.5v-2.8
			c0-0.1-0.1-0.3-0.2-0.4c-0.1-0.1-0.2-0.2-0.3-0.2h-4.8v-5.9c0-0.5,0.1-1.1,0.3-1.6c0.2-0.5,0.5-0.9,0.9-1.3
			c0.4-0.4,0.8-0.7,1.3-0.9c0.5-0.2,1-0.3,1.6-0.3h5.4c1.6,0,3.1,0.5,4.4,1.5v-4.2h3.2v2.8h1.9v3.2L131.7,118.8z M123.1,127.7
			l5.4-2.1V123l-1.3-2.7c-0.3-0.4-0.8-0.8-1.3-1c-0.6-0.3-1.2-0.4-1.8-0.4h-5.4c-0.4-0.1-0.8,0.2-0.9,0.7c0,0.1,0,0.1,0,0.2v2.8h2
			c1.8,0,3.3,1.4,3.3,3.2c0,0,0,0,0,0L123.1,127.7z"/>
		<path class="st2" d="M132.4,115.6h0.9c0.8-0.1,1.6,0.3,2.2,0.9v-3.3h3.2v2.4h2.7v3.2h-2.7v20h-3.2v-15.5c0.1-1.2-0.2-2.4-0.8-3.4
			c-0.6-0.7-1.4-1.1-2.4-1.1V115.6z"/>
		<path class="st2" d="M156,115.6v3.2h-15.7v-3.2h10.9v-1.7c0-0.9-0.7-1.7-1.6-1.7c0,0-0.1,0-0.1,0h-7.1v-3.2h7.1
			c2.7-0.1,4.9,2,5,4.7c0,0.1,0,0.2,0,0.3v1.7L156,115.6z M147.2,132c1,0,1.9-0.4,2.6-1.1c0.7-0.7,1.1-1.7,1.1-2.7v-2.6
			c0-1.6-1.3-2.8-2.9-2.8h-2.4c-0.6,0-1,0.4-1,1v4.4h-3.2v-4.4c0-2.3,1.9-4.2,4.2-4.2h2.4c0.8,0,1.6,0.2,2.4,0.5
			c0.7,0.3,1.4,0.8,1.9,1.3c0.6,0.5,1,1.2,1.3,1.9c0.3,0.7,0.5,1.5,0.5,2.4v2.6c0,1.5-0.5,3.1-1.4,4.3c-0.9,1.2-2.2,2.1-3.7,2.4
			l0.7,0.4c0.7,0.4,1.4,0.9,2,1.4s1.3,0.9,1.8,1.3s0.9,0.7,1.2,1l0.5,0.4l-2.1,2.4l-0.5-0.4c-0.3-0.2-0.6-0.6-1.1-0.9
			s-1-0.8-1.6-1.2c-0.6-0.4-1.2-0.8-1.9-1.2c-0.7-0.4-1.3-0.7-2-1.1s-1.3-0.6-1.8-0.8l-1.5-0.6l-1-0.4h-0.3V132H147.2z"/>
		<path class="st2" d="M156.9,132.4v-9.7c0-1.4,0.4-2.7,1.2-3.9h-2.7v-3.2h9.3v3.2H164c-1,0-2,0.4-2.7,1.1c-0.7,0.7-1.1,1.7-1.1,2.8
			v9.7c0,0.9,0.3,1.7,0.9,2.3c0.6,0.6,1.4,1,2.3,0.9h1.1v3.2h-1.1c-0.9,0-1.7-0.2-2.5-0.5c-0.8-0.3-1.4-0.8-2-1.4
			c-0.6-0.6-1.1-1.3-1.4-2.1C157.1,134.1,156.9,133.3,156.9,132.4z"/>
		<path class="st2" d="M164.2,118.8v-3.2h22.7v3.2H164.2z M185.1,130.2c0,1.1-0.2,2.3-0.7,3.3c-0.4,1-1.1,2-1.8,2.8
			c-1.6,1.6-3.8,2.6-6.1,2.5h-2.4c-1.1,0-2.3-0.2-3.3-0.7c-1-0.4-2-1.1-2.8-1.9c-0.8-0.8-1.4-1.7-1.9-2.8c-0.5-1.1-0.7-2.2-0.7-3.3
			V123h3.2v7.2c0,0.7,0.1,1.4,0.4,2.1c0.6,1.3,1.6,2.3,2.9,2.9c0.7,0.3,1.4,0.4,2.1,0.4h2.4c0.7,0,1.4-0.1,2.1-0.4
			c0.6-0.3,1.2-0.7,1.7-1.2c0.5-0.5,0.9-1.1,1.2-1.7c0.3-0.7,0.4-1.4,0.4-2.1v-0.8c-0.8,0.6-1.7,0.9-2.7,1.2
			c-0.9,0.2-1.9,0.3-2.8,0.3c-0.9,0-1.8-0.1-2.7-0.3l-1.3-0.3v-6.8c0-0.5,0.1-1.1,0.3-1.5c0.2-0.5,0.5-0.9,0.8-1.2
			c0.4-0.3,0.8-0.6,1.2-0.8c0.5-0.2,1-0.3,1.5-0.3h1.9c1.6,0,3,1.3,3,2.9c0,0,0,0.1,0,0.1v1.6H178v-0.8c0-0.3-0.2-0.5-0.4-0.6
			c0,0-0.1,0-0.1,0h-1.1c-0.3,0-0.6,0.2-0.6,0.5c0,0,0,0.1,0,0.1v4.1c0.1,0,0.2,0,0.4,0h0.4c1.1,0,2.1-0.2,3.1-0.7
			c1.1-0.5,1.9-1.5,2.3-2.7v-0.5h3.2L185.1,130.2z"/>
		<path class="st2" d="M188.7,112.5v-3.2h8.1c0.7,0,1.4,0.1,2,0.4c1.3,0.6,2.3,1.6,2.9,2.9c0.3,0.6,0.4,1.3,0.4,2v1h1.8v3.2h-12.8
			V135l5.7-1.9c1.2-0.4,2-1.5,2-2.8v-4.5c0-0.9-0.7-1.7-1.7-1.7c0,0,0,0,0,0h-3.1v-3.2h3.1c2.6-0.1,4.8,2,4.9,4.7c0,0.1,0,0.2,0,0.2
			v4.5c0,1.3-0.4,2.5-1.1,3.6c-0.8,1.1-1.8,1.8-3.1,2.2l-6.7,2.2l-3.3-1.9v-17.7h-1.2v-3.2h12.2v-1c0-1.1-1-2.1-2.1-2.1L188.7,112.5
			z"/>
		<path class="st2" d="M215.2,132.4v-9.7c0-1.5,0.4-2.9,1.3-4.1c0.8-1.2,1.9-2.2,3.1-3h3.4v3.2h-0.8c-1,0-2,0.4-2.7,1.1
			c-0.7,0.7-1.2,1.7-1.1,2.7v9.7c0,0.9,0.4,1.7,1,2.3c0.6,0.6,1.4,0.9,2.3,0.9h1.1v3.2h-1.1c-0.9,0-1.7-0.2-2.5-0.5
			C216.8,137.3,215.2,135,215.2,132.4L215.2,132.4z"/>
		<path class="st2" d="M241.1,118.8v21.3h-3.2v-1.4l0,0v-1.2h-2.5c-0.2,0-0.5,0.1-0.6,0.2c-0.2,0.2-0.3,0.4-0.3,0.7v2.3h-6.4
			c-0.7,0-1.4-0.1-2-0.4c-0.6-0.3-1.1-0.6-1.6-1.1c-0.5-0.5-0.8-1-1.1-1.6c-0.3-0.6-0.4-1.3-0.4-2v-1.7h3.2v1.7c0,0.5,0.2,1,0.6,1.3
			c0.3,0.3,0.8,0.5,1.3,0.5h3.3c0.4-1.9,2.1-3.3,4-3.3h2.5V129l-11.2,4.5l-1.2-3l3.8-1.5v-2.8c0-0.2-0.1-0.3-0.2-0.4
			c-0.1-0.1-0.2-0.2-0.4-0.2H224v-5.9c0-0.5,0.1-1.1,0.3-1.6c0.2-0.5,0.5-0.9,0.9-1.3c0.4-0.4,0.8-0.7,1.3-0.9
			c0.5-0.2,1-0.3,1.6-0.3h5.4c1.6,0,3.1,0.5,4.4,1.5v-4.2h3.2v2.8h1.9v3.2L241.1,118.8z M232.5,127.7l5.4-2.1V123l-1.3-2.7
			c-0.3-0.4-0.8-0.8-1.3-1c-0.6-0.3-1.2-0.4-1.8-0.4h-5.4c-0.4-0.1-0.8,0.2-0.9,0.7c0,0.1,0,0.2,0,0.2v2.8h2c0.9,0,1.7,0.4,2.4,1
			c0.6,0.6,1,1.4,1,2.3L232.5,127.7z"/>
		<path class="st2" d="M241.8,115.6h0.9c0.8-0.1,1.6,0.3,2.2,0.9v-3.3h3.2v2.4h2.7v3.2h-2.7v20H245v-15.5c0.1-1.2-0.2-2.4-0.8-3.4
			c-0.5-0.7-1.4-1.1-2.4-1.1L241.8,115.6z"/>
		<path class="st2" d="M251,128.9h3.3v5c0,1.1,0.9,1.9,1.9,1.9h4v-0.4c0-2.3,1.9-4.2,4.2-4.2h2.3v-5.5c0-0.7-0.1-1.5-0.3-2.2
			c-0.2-0.8-0.4-1.5-0.8-2.2c-0.3-0.6-0.6-1.2-1.1-1.7c-0.3-0.4-0.8-0.7-1.4-0.7h-3.1c-0.8,0-1.5,0.2-2.1,0.7
			c-0.6,0.5-1,1.1-1.2,1.8c0.2,0,0.3,0,0.5,0h1.3c0.7,0,1.4,0.1,2,0.4c0.6,0.3,1.2,0.6,1.7,1.1c0.5,0.5,0.9,1,1.1,1.7
			c0.3,0.6,0.4,1.3,0.4,2v0.3c0,0.7-0.2,1.5-0.5,2.1c-0.3,0.7-0.7,1.3-1.2,1.8c-0.5,0.5-1.1,0.9-1.8,1.2c-0.7,0.3-1.4,0.5-2.1,0.4
			h-2.6v-3.2h2.6c1.3,0,2.3-1,2.3-2.3c0,0,0,0,0,0v-0.3c0-0.5-0.2-1-0.6-1.4c-0.4-0.4-0.9-0.6-1.4-0.6h-1.3c-0.4,0-0.6,0.2-0.6,0.6
			v1.4h-3.3v-4.3c0-0.9,0.2-1.8,0.5-2.6c0.3-0.8,0.8-1.5,1.4-2.1c0.6-0.6,1.3-1.1,2.1-1.4c0.8-0.4,1.7-0.5,2.6-0.5h3.1
			c1.3,0,2.6,0.5,3.5,1.5V113h3.2v2.7h1.9v3.3h-1.9v20h-3.2v-4.5h-2.3c-0.3,0-0.5,0.1-0.7,0.3c-0.2,0.2-0.3,0.4-0.3,0.6v3.6h-7.2
			c-0.7,0-1.4-0.1-2-0.4c-1.2-0.5-2.2-1.5-2.8-2.8c-0.3-0.6-0.4-1.3-0.4-2L251,128.9z"/>
		<path class="st2" d="M270.6,115.6h0.9c0.8-0.1,1.6,0.3,2.2,0.9v-3.3h3.3v2.4h2.7v3.2H277v20h-3.2v-15.5c0.1-1.2-0.2-2.4-0.8-3.4
			c-0.6-0.7-1.4-1.1-2.4-1.1L270.6,115.6z"/>
		<path class="st2" d="M289,138.6h-3c-1.7,0.1-3.4-0.5-4.7-1.7c-1.2-1.2-1.8-2.9-1.7-4.6v-2.1c-0.1-1.9,0.7-3.8,2.2-5.1
			c-1.4-1.2-2.2-2.9-2.2-4.8v-1.5h-1.2v-3.2h18.4v3.2h-1.8v19.9h-3.2v-8.2c0-1.1-0.4-2.1-1.2-2.8c-0.7-0.8-1.8-1.2-2.8-1.2h-1.4
			c-1,0-1.9,0.3-2.6,1c-0.7,0.7-1,1.6-1,2.6v2.1c-0.1,0.9,0.2,1.7,0.8,2.4c0.7,0.6,1.5,0.8,2.4,0.8h3L289,138.6z M286,123.4h1.9
			c1.4,0,2.8,0.4,4,1.2v-5.8h-9v1.5C282.9,122,284.3,123.4,286,123.4C286,123.5,286,123.5,286,123.4z"/>
		<path class="st2" d="M318.3,124.6v3.4h-9.8v-3.4L318.3,124.6z"/>
		<path class="st2" d="M341.4,128.5c0.6-0.6,1-1.4,1-2.3v-1.9c0-1-0.6-1.9-1.6-2.2l-5.3-1.9c-1.7-0.6-2.9-2.2-2.9-4.1v-0.2h3.2v0.2
			c0,0.4,0.3,0.8,0.7,1l5.3,1.9c1.1,0.4,2.1,1.1,2.7,2.1c0.7,0.9,1,2.1,1,3.2v1.9c0,0.9-0.2,1.7-0.5,2.5c-0.3,0.8-0.8,1.4-1.4,2
			c-0.6,0.6-1.3,1-2.1,1.4c-0.8,0.3-1.7,0.5-2.6,0.5l-1.8-0.1l8.6,6l-1.8,2.7l-12.5-8.7v-3.4l7.6,0.3
			C340,129.4,340.8,129.1,341.4,128.5z"/>
		<path class="st2" d="M365.6,124.7v5.5c0,1-0.2,2-0.6,2.9c-0.4,0.9-0.9,1.7-1.6,2.4c-0.7,0.7-1.5,1.2-2.4,1.6
			c-0.9,0.4-1.9,0.6-2.9,0.6h-1.7c-1,0-2-0.2-2.9-0.6c-0.9-0.4-1.7-0.9-2.4-1.6c-1.4-1.4-2.2-3.3-2.2-5.2v-5.5c0-1,0.2-2,0.6-2.9
			c0.4-0.9,0.9-1.7,1.6-2.4c0.7-0.7,1.5-1.2,2.4-1.6c0.9-0.4,1.9-0.6,2.9-0.6h1.7c1,0,1.9,0.2,2.8,0.6c0.9,0.4,1.7,0.9,2.4,1.6
			c0.7,0.7,1.2,1.5,1.6,2.4C365.4,122.7,365.6,123.7,365.6,124.7z M362.4,130.2v-5.5c0-2.3-1.9-4.2-4.2-4.2h-1.7
			c-0.6,0-1.1,0.1-1.6,0.3c-1,0.4-1.8,1.2-2.3,2.3c-0.2,0.5-0.3,1.1-0.3,1.6v5.5c0,0.6,0.1,1.1,0.3,1.6c0.4,1,1.2,1.8,2.3,2.3
			c0.5,0.2,1.1,0.3,1.6,0.3h1.7C360.5,134.4,362.3,132.5,362.4,130.2L362.4,130.2z"/>
		<path class="st2" d="M378.5,128.5c0.6-0.6,1-1.4,1-2.3v-1.9c0-1-0.6-1.9-1.6-2.2l-5.3-1.9c-1.7-0.6-2.9-2.2-2.8-4.1v-0.2h3.2v0.2
			c0,0.4,0.3,0.8,0.7,1l5.3,1.9c1.1,0.4,2,1.1,2.7,2.1c0.7,0.9,1,2.1,1,3.2v1.9c0,0.8-0.2,1.7-0.5,2.5c-0.3,0.8-0.8,1.4-1.4,2
			c-0.6,0.6-1.3,1-2.1,1.4c-0.8,0.3-1.7,0.5-2.6,0.5l-1.8-0.1l8.6,6l-1.9,2.7l-12.5-8.7v-3.4l7.6,0.3
			C377,129.4,377.8,129.1,378.5,128.5z"/>
		<path class="st2" d="M390.8,130.4h-1.4c-0.2,0.1-0.4,0.3-0.5,0.6c-0.2,0.3-0.3,0.6-0.3,1c0,0.7,0.3,1.5,0.8,2
			c0.4,0.6,1.1,0.9,1.8,0.9h2.9c0.5,0,1.1-0.1,1.6-0.2c0.5-0.1,1.1-0.4,1.5-0.7c0.5-0.3,0.8-0.8,1.1-1.3c0.3-0.7,0.4-1.4,0.4-2.2
			c0-0.9-0.1-1.8-0.4-2.7c-0.2-0.7-0.7-1.4-1.2-2c-0.7-0.6-1.4-1.2-2.2-1.6c-1.1-0.5-2.3-1-3.5-1.4c-1-0.4-2-0.9-2.8-1.5
			c-0.6-0.4-1.2-1-1.7-1.6c-0.4-0.5-0.6-1-0.8-1.6c-0.1-0.4-0.2-0.9-0.2-1.3c0-0.3,0-0.6,0.1-0.9l0.5,0.1c0.3,0.1,0.7,0.2,1,0.3
			s0.7,0.2,1,0.3l0.5,0.1c0,0.1,0,0.2,0,0.2c0.1,0.5,0.3,0.9,0.7,1.3c0.8,0.7,1.7,1.2,2.6,1.5c1.3,0.4,2.5,0.9,3.7,1.5
			c1.1,0.5,2.1,1.2,3,2c0.9,0.8,1.5,1.8,2,2.9c0.5,1.3,0.8,2.7,0.7,4.1c0.1,2.2-0.6,4.3-2.2,5.8c-1.6,1.4-3.6,2.1-5.7,2h-2.9
			c-0.8,0-1.6-0.2-2.3-0.5c-0.7-0.3-1.3-0.8-1.8-1.4c-0.5-0.6-0.9-1.3-1.2-2c-0.3-0.7-0.5-1.5-0.5-2.3c0-0.5,0.1-1.1,0.3-1.6
			c0.2-0.6,0.5-1.1,0.8-1.6c0.3-0.5,0.8-0.9,1.3-1.2c0.5-0.3,1.1-0.5,1.7-0.5h1.4L390.8,130.4z"/>
		<g>
			<path d="M67.1,177.4v-21h9.1c1.7,0,3.3,0.3,4.9,0.9c1.3,0.5,2.4,1.5,3.1,2.6c1.5,2.5,1.5,5.6,0,8.1c-0.8,1.2-1.9,2.1-3.1,2.6
				c-1.5,0.6-3.2,0.9-4.9,0.9h-6.4l2.2-2.1v8L67.1,177.4z M72,169.9l-2.2-2.3h6.1c1.2,0.1,2.4-0.3,3.4-1c0.8-0.7,1.2-1.7,1.1-2.7
				c0.1-1-0.4-2-1.1-2.7c-1-0.7-2.2-1-3.4-0.9h-6.1L72,158V169.9z M80.5,177.4l-5.3-7.6h5.2l5.3,7.6H80.5z"/>
			<path d="M96.9,177.6c-1.7,0-3.3-0.3-4.8-1.1c-1.3-0.7-2.4-1.7-3.2-2.9c-0.8-1.3-1.2-2.8-1.1-4.3c0-1.5,0.3-3,1.1-4.3
				c0.7-1.3,1.8-2.3,3.1-3c1.4-0.7,2.9-1.1,4.4-1.1c1.5,0,3,0.3,4.3,1c1.2,0.7,2.3,1.7,3,2.9c0.8,1.4,1.2,2.9,1.1,4.5
				c0,0.2,0,0.4,0,0.6s0,0.4-0.1,0.6H91.5v-2.7h10.6l-1.8,0.8c0-0.8-0.1-1.5-0.5-2.2c-0.3-0.6-0.8-1.1-1.4-1.4
				c-0.6-0.4-1.4-0.5-2.1-0.5c-0.7,0-1.5,0.2-2.1,0.5c-0.6,0.3-1.1,0.9-1.4,1.5c-0.4,0.7-0.5,1.5-0.5,2.2v0.7c0,0.8,0.2,1.6,0.6,2.3
				c0.4,0.7,1,1.2,1.6,1.5c0.8,0.4,1.7,0.5,2.5,0.5c0.8,0,1.5-0.1,2.2-0.4c0.7-0.3,1.3-0.7,1.8-1.2l2.5,2.7
				c-0.8,0.9-1.7,1.5-2.8,1.9C99.5,177.4,98.2,177.6,96.9,177.6z"/>
			<path d="M111.9,177.4l-6.8-16.1h4.8l5.6,13.9h-2.4l5.9-13.9h4.5l-6.8,16.1H111.9z"/>
			<path d="M127.8,159c-0.8,0-1.5-0.2-2.1-0.8c-1-1-1.1-2.6-0.1-3.6c0,0,0.1-0.1,0.1-0.1c0.6-0.5,1.3-0.8,2.1-0.8
				c0.8,0,1.5,0.2,2.1,0.7c0.5,0.4,0.8,1.1,0.8,1.8c0,0.7-0.3,1.4-0.8,1.9C129.3,158.8,128.5,159,127.8,159z M125.4,177.4v-16.1h4.7
				v16.1L125.4,177.4z"/>
			<path d="M139.9,177.6c-1.3,0-2.7-0.2-4-0.5c-1.1-0.3-2.1-0.7-3-1.2l1.5-3.3c0.8,0.5,1.7,0.8,2.6,1.1c1,0.3,2,0.4,3,0.4
				c0.8,0.1,1.6-0.1,2.3-0.4c0.4-0.2,0.7-0.6,0.7-1.1c0-0.4-0.2-0.7-0.5-0.9c-0.4-0.2-0.9-0.4-1.4-0.4c-0.6-0.1-1.2-0.2-1.9-0.3
				c-0.7-0.1-1.4-0.2-2.1-0.4c-0.7-0.2-1.3-0.4-1.9-0.8c-0.6-0.3-1.1-0.8-1.4-1.4c-0.4-0.7-0.6-1.5-0.5-2.2c0-1,0.3-1.9,0.9-2.7
				c0.7-0.8,1.5-1.5,2.6-1.9c1.3-0.5,2.6-0.7,4-0.7c1.1,0,2.3,0.1,3.4,0.4c1,0.2,2,0.5,2.9,1l-1.6,3.3c-0.7-0.4-1.5-0.7-2.3-0.9
				c-0.7-0.2-1.5-0.3-2.3-0.3c-0.8-0.1-1.6,0.1-2.3,0.4c-0.4,0.2-0.7,0.6-0.7,1.1c0,0.4,0.2,0.7,0.5,0.9c0.4,0.2,0.9,0.4,1.4,0.5
				l1.9,0.3c0.7,0.1,1.4,0.2,2.1,0.4c0.7,0.2,1.3,0.4,1.9,0.8c0.6,0.3,1.1,0.8,1.4,1.4c0.4,0.7,0.6,1.5,0.5,2.2c0,1-0.3,1.9-0.9,2.6
				c-0.7,0.8-1.6,1.5-2.6,1.8C142.7,177.4,141.3,177.6,139.9,177.6z"/>
			<path d="M152.7,159c-0.8,0-1.5-0.2-2.1-0.8c-1-1-1.1-2.6-0.1-3.6c0,0,0.1-0.1,0.1-0.1c0.6-0.5,1.3-0.8,2.1-0.8
				c0.8,0,1.5,0.2,2.1,0.7c0.5,0.4,0.8,1.1,0.8,1.8c0,0.7-0.3,1.4-0.8,1.9C154.3,158.8,153.5,159,152.7,159z M150.4,177.4v-16.1h4.7
				v16.1L150.4,177.4z"/>
			<path d="M167.1,177.6c-1.6,0-3.1-0.3-4.6-1.1c-4-2.3-5.5-7.4-3.2-11.4c0,0,0-0.1,0.1-0.1c0.8-1.2,1.8-2.3,3.1-2.9
				c1.4-0.7,3-1.1,4.6-1.1c1.6,0,3.2,0.3,4.6,1.1c1.3,0.7,2.4,1.7,3.1,2.9c2.4,3.8,1.2,8.9-2.7,11.2c-0.2,0.1-0.3,0.2-0.5,0.3
				C170.2,177.3,168.6,177.6,167.1,177.6z M167.1,173.8c0.7,0,1.5-0.2,2.1-0.5c0.6-0.4,1.1-0.9,1.5-1.6c0.4-0.7,0.6-1.6,0.6-2.4
				c0-0.8-0.2-1.7-0.6-2.4c-0.3-0.6-0.9-1.2-1.5-1.5c-0.6-0.4-1.4-0.5-2.1-0.5c-0.7,0-1.5,0.2-2.1,0.5c-0.6,0.4-1.1,0.9-1.5,1.5
				c-0.4,0.7-0.6,1.6-0.6,2.4c0,0.8,0.2,1.7,0.6,2.4c0.3,0.6,0.9,1.2,1.5,1.6C165.6,173.6,166.3,173.8,167.1,173.8z"/>
			<path d="M188.9,161c1.2,0,2.4,0.2,3.4,0.8c1,0.5,1.9,1.3,2.4,2.3c0.6,1.2,0.9,2.6,0.9,4v9.2h-4.7v-8.5c0.1-1-0.2-2.1-0.9-2.9
				c-0.6-0.6-1.5-1-2.4-0.9c-0.7,0-1.4,0.2-2,0.5c-0.6,0.3-1.1,0.8-1.4,1.4c-0.4,0.8-0.5,1.6-0.5,2.5v8h-4.7v-16.1h4.5v4.5l-0.8-1.4
				c0.6-1.1,1.4-1.9,2.5-2.5C186.3,161.3,187.6,161,188.9,161z"/>
			<path d="M208.6,177.4v-21h9.1c1.7,0,3.3,0.3,4.9,0.9c1.3,0.5,2.4,1.5,3.1,2.6c2.2,3.3,1.4,7.9-2,10.1c-0.4,0.2-0.8,0.5-1.2,0.6
				c-1.5,0.7-3.2,1-4.9,0.9h-6.4l2.2-2.2v8L208.6,177.4z M213.5,169.9l-2.2-2.3h6.1c1.2,0.1,2.4-0.3,3.4-1c0.7-0.7,1.1-1.6,1.1-2.6
				c0.1-1-0.4-2-1.1-2.7c-1-0.7-2.2-1-3.4-0.9h-6.1l2.2-2.3L213.5,169.9z"/>
			<path d="M229.9,177.4v-16.1h4.5v4.6l-0.6-1.4c0.4-1.1,1.3-2,2.3-2.6c1.2-0.6,2.5-0.9,3.9-0.9v4.4l-0.5-0.1h-0.5
				c-1.2-0.1-2.3,0.3-3.1,1.1c-0.8,0.9-1.3,2.2-1.2,3.4v7.6L229.9,177.4z"/>
			<path d="M250.2,177.6c-1.6,0-3.1-0.3-4.5-1.1c-4-2.3-5.5-7.4-3.2-11.4c0,0,0-0.1,0.1-0.1c0.8-1.2,1.8-2.3,3.1-2.9
				c1.4-0.7,3-1.1,4.5-1.1c1.6,0,3.2,0.3,4.6,1.1c4,2.3,5.5,7.4,3.2,11.4c0,0-0.1,0.1-0.1,0.1c-0.8,1.2-1.9,2.3-3.1,2.9
				C253.4,177.3,251.8,177.6,250.2,177.6z M250.2,173.8c0.7,0,1.5-0.2,2.1-0.5c0.6-0.4,1.1-0.9,1.5-1.6c0.4-0.7,0.6-1.6,0.6-2.4
				c0-0.8-0.2-1.7-0.6-2.4c-0.3-0.6-0.9-1.2-1.5-1.5c-0.6-0.4-1.4-0.5-2.1-0.5c-0.7,0-1.5,0.2-2.1,0.5c-0.6,0.4-1.1,0.9-1.5,1.5
				c-0.4,0.7-0.6,1.6-0.5,2.4c0,0.8,0.2,1.7,0.5,2.4c0.3,0.6,0.9,1.2,1.5,1.6C248.8,173.6,249.5,173.8,250.2,173.8z"/>
			<path d="M269.1,176.6c-1.4,0-2.8-0.3-4-1c-1.2-0.6-2.2-1.6-2.9-2.7c-1.4-2.6-1.4-5.7,0-8.2c0.7-1.2,1.7-2.1,2.9-2.7
				c1.2-0.7,2.6-1,4-1c1.3,0,2.5,0.3,3.6,0.8c1.1,0.6,1.9,1.5,2.4,2.6c1.2,2.8,1.2,6,0,8.8c-0.5,1.1-1.4,2-2.4,2.6
				C271.6,176.3,270.4,176.6,269.1,176.6z M269.8,183.4c-1.5,0-3-0.2-4.4-0.6c-1.3-0.3-2.5-0.9-3.5-1.7l1.9-3.4
				c0.8,0.6,1.6,1.1,2.6,1.4c1,0.3,2.1,0.5,3.1,0.5c1.3,0.1,2.6-0.3,3.6-1.1c0.8-0.9,1.2-2.1,1.1-3.3v-2.4l0.3-4.1l-0.1-4.1v-3.4
				h4.4v13.4c0,3-0.8,5.2-2.3,6.6C275,182.7,272.8,183.4,269.8,183.4L269.8,183.4z M270,172.8c0.8,0,1.5-0.2,2.2-0.5
				c0.6-0.3,1.1-0.8,1.5-1.4c0.7-1.3,0.7-2.9,0-4.1c-0.4-0.6-0.9-1.1-1.5-1.4c-1.4-0.6-3-0.6-4.4,0c-0.6,0.3-1.2,0.8-1.5,1.4
				c-1.1,1.8-0.6,4.3,1.3,5.4c0.1,0.1,0.2,0.1,0.3,0.2C268.5,172.6,269.3,172.8,270,172.8L270,172.8z"/>
			<path d="M283.2,177.4v-16.1h4.5v4.6l-0.6-1.4c0.4-1.1,1.3-2,2.3-2.6c1.2-0.6,2.5-0.9,3.9-0.9v4.4l-0.5-0.1h-0.5
				c-1.2-0.1-2.3,0.3-3.1,1.1c-0.8,0.9-1.3,2.2-1.2,3.4v7.6L283.2,177.4z"/>
			<path d="M300,177.6c-1.1,0-2.2-0.2-3.2-0.6c-0.8-0.4-1.6-1-2.1-1.8c-0.5-0.7-0.7-1.6-0.7-2.5c-0.1-1.9,1.1-3.6,2.9-4.2
				c1.3-0.4,2.6-0.6,4-0.6h4.3v2.7h-3.8c-0.8-0.1-1.6,0.1-2.3,0.5c-0.4,0.3-0.6,0.8-0.6,1.4c0,0.6,0.2,1.1,0.7,1.4
				c0.6,0.4,1.2,0.6,1.9,0.5c0.7,0,1.5-0.2,2.1-0.5c0.6-0.4,1.1-1,1.3-1.6l0.7,2.2c-0.3,1-1,1.8-1.9,2.3
				C302.4,177.4,301.2,177.7,300,177.6z M304.9,177.4v-3.1l-0.3-0.7v-5.6c0.1-0.9-0.3-1.7-0.9-2.3c-0.8-0.6-1.8-0.9-2.8-0.8
				c-0.9,0-1.7,0.1-2.5,0.4c-0.8,0.2-1.5,0.6-2.1,1.1l-1.6-3.2c1-0.7,2-1.2,3.2-1.4c1.2-0.3,2.5-0.5,3.8-0.5
				c2.1-0.1,4.1,0.5,5.7,1.7c1.3,1.2,2,3,2,5.4v9.2L304.9,177.4z"/>
			<path d="M334.2,161c1.2,0,2.3,0.2,3.4,0.8c1,0.5,1.8,1.3,2.3,2.3c0.6,1.2,0.9,2.6,0.8,4v9.2h-4.7v-8.5c0.1-1-0.2-2-0.8-2.9
				c-0.6-0.6-1.4-1-2.2-0.9c-0.7,0-1.3,0.2-1.9,0.5c-0.5,0.3-1,0.8-1.2,1.4c-0.3,0.8-0.5,1.6-0.4,2.4v8.1h-4.6v-8.5
				c0.1-1-0.2-2-0.8-2.9c-0.6-0.6-1.4-1-2.3-0.9c-0.6,0-1.3,0.2-1.8,0.5c-0.6,0.3-1,0.8-1.3,1.4c-0.3,0.7-0.5,1.6-0.5,2.4v8.1h-4.7
				v-16.1h4.5v4.4l-0.8-1.3c0.5-1.1,1.3-1.9,2.4-2.5c1.1-0.6,2.3-0.9,3.5-0.9c1.4,0,2.7,0.4,3.9,1.1c1.2,0.8,2,2,2.2,3.4l-1.6-0.4
				c0.5-1.2,1.4-2.3,2.6-3C331.3,161.4,332.8,161,334.2,161z"/>
		</g>
	</g>
</g>
</svg>
